<svg width="51" height="50" viewBox="0 0 51 50" fill="none" xmlns="http://www.w3.org/2000/svg">
<path d="M38.167 41.6667C38.167 38.3515 36.85 35.1721 34.5058 32.8279C32.1616 30.4836 28.9822 29.1667 25.667 29.1667C22.3518 29.1667 19.1724 30.4836 16.8282 32.8279C14.484 35.1721 13.167 38.3515 13.167 41.6667" stroke="#9E9494" stroke-width="2" stroke-linecap="round" stroke-linejoin="round"/>
<path d="M25.6668 29.1667C30.2692 29.1667 34.0002 25.4357 34.0002 20.8333C34.0002 16.231 30.2692 12.5 25.6668 12.5C21.0645 12.5 17.3335 16.231 17.3335 20.8333C17.3335 25.4357 21.0645 29.1667 25.6668 29.1667Z" stroke="#9E9494" stroke-width="2" stroke-linecap="round" stroke-linejoin="round"/>
<path d="M25.6668 45.8334C37.1728 45.8334 46.5002 36.506 46.5002 25C46.5002 13.4941 37.1728 4.16669 25.6668 4.16669C14.1609 4.16669 4.8335 13.4941 4.8335 25C4.8335 36.506 14.1609 45.8334 25.6668 45.8334Z" stroke="#9E9494" stroke-width="2" stroke-linecap="round" stroke-linejoin="round"/>
</svg>
