<?xml version="1.0" encoding="UTF-8"?>
<svg version="1.1" xmlns="http://www.w3.org/2000/svg" width="500" height="500">
<path d="M0 0 C3.77842332 2.87488731 5.61764264 5.51340156 7 10 C7.33623309 13.02424218 7.37919993 16.02145117 7.375 19.0625 C7.37910889 20.32525757 7.37910889 20.32525757 7.38330078 21.61352539 C7.28720701 27.81038727 6.19521668 32.93896865 3.6796875 38.65234375 C2.81576775 40.92785795 2.81576775 40.92785795 3.44921875 42.98046875 C5.80391085 46.04690657 8.82861241 48.1357079 11.9375 50.375 C12.64479248 50.89465332 13.35208496 51.41430664 14.08081055 51.94970703 C15.5999082 53.06489329 17.12156443 54.17660105 18.64550781 55.28515625 C20.97643949 56.98284021 23.29821747 58.6922713 25.6171875 60.40625 C29.59939386 63.34927585 33.58712519 66.28469232 37.57666016 69.21777344 C41.55322524 72.1423075 45.52643221 75.07139564 49.5 78 C51.06770439 79.15495327 52.63541273 80.30990117 54.203125 81.46484375 C57.52707713 83.91396346 60.84980771 86.36473056 64.171875 88.81640625 C65.02201172 89.44353516 65.87214844 90.07066406 66.74804688 90.71679688 C68.36424847 91.90907674 69.98015493 93.10175681 71.59570312 94.29492188 C72.33240234 94.83826172 73.06910156 95.38160156 73.828125 95.94140625 C74.4665332 96.41263916 75.10494141 96.88387207 75.76269531 97.36938477 C76.50100586 97.90748779 77.23931641 98.44559082 78 99 C78.72989624 99.60985906 78.72989624 99.60985906 79.47453785 100.2320385 C83.81667551 103.68447212 87.25736201 104.71603512 92.82788086 104.59594727 C93.57683121 104.6000058 94.32578156 104.60406433 95.09742737 104.60824585 C96.71190856 104.61373573 98.32646151 104.60783192 99.94087029 104.59158516 C102.50231069 104.56603248 105.06215226 104.57100565 107.62367249 104.58348083 C113.06179299 104.60417063 118.49941263 104.58458507 123.9375 104.5625 C130.23962814 104.54134211 136.54123759 104.53692187 142.84335518 104.56300163 C145.35622717 104.56634489 147.86809108 104.54520262 150.38084412 104.52259827 C159.2247034 104.50669012 166.00649373 104.69093185 173.0234375 110.74609375 C173.46945312 111.30425781 173.91546875 111.86242187 174.375 112.4375 C175.06722656 113.27087891 175.06722656 113.27087891 175.7734375 114.12109375 C178.52489738 118.33590968 179.33990883 122.46136857 179.8515625 127.41796875 C179.98103271 128.66433105 180.11050293 129.91069336 180.24389648 131.19482422 C180.37219251 132.52559513 180.49920374 133.85649046 180.625 135.1875 C180.6897049 135.85896057 180.75440979 136.53042114 180.82107544 137.222229 C183.92748843 169.81644855 183.92748843 169.81644855 176.359375 178.98828125 C175.82828125 179.42527344 175.2971875 179.86226562 174.75 180.3125 C174.22921875 180.76238281 173.7084375 181.21226562 173.171875 181.67578125 C171.08358255 182.9490387 169.15372249 183.74309078 166.86425781 184.58276367 C166.14135559 184.84925217 165.41845337 185.11574066 164.67364502 185.39030457 C164.12134216 185.59150406 163.56903931 185.79270355 163 186 C163.10489746 187.2211853 163.10489746 187.2211853 163.21191406 188.46704102 C164.9559685 208.77742421 166.69061485 229.0885942 168.41651917 249.40052795 C169.31182495 259.93393458 170.21088625 270.46700308 171.11669922 280.99951172 C171.95927339 290.79677937 172.79597008 300.59453028 173.62630272 310.39284325 C174.07331915 315.66533629 174.52310419 320.93755883 174.97973633 326.20922852 C175.41288851 331.21092872 175.83825926 336.21323472 176.25813484 341.21606636 C176.41313883 343.04730352 176.57081465 344.87831712 176.73156548 346.70905876 C177.53804844 355.91201311 178.15097237 365.08580951 178.25024414 374.32641602 C178.26554137 375.0992414 178.2808386 375.87206678 178.29659939 376.66831112 C178.29811992 384.83701615 175.48698722 391.07625882 170.06640625 397.17578125 C161.5444085 405.19941656 152.12971158 406.08012186 140.88221741 406.46192932 C139.35762827 406.51833892 139.35762827 406.51833892 137.80223936 406.5758881 C134.39701156 406.70089941 130.99161042 406.82029594 127.58618164 406.93969727 C125.14300389 407.02819245 122.69983805 407.11701699 120.25668335 407.20614624 C114.30353387 407.4223483 108.35026238 407.63482947 102.3969127 407.84542222 C97.54315645 408.0171715 92.68945293 408.19034391 87.835783 408.3645153 C87.14337996 408.38935807 86.45097692 408.41420083 85.73759196 408.4397964 C84.33041779 408.49028648 82.92324366 408.54077795 81.51606958 408.5912708 C68.31055069 409.06491283 55.10485562 409.53348955 41.89910089 410.00050288 C29.88926689 410.42537439 17.87966226 410.85637211 5.8701554 411.29038418 C-6.50706002 411.73763054 -18.88441908 412.18068957 -31.26194102 412.61937374 C-38.19178249 412.86504934 -45.12155924 413.11228379 -52.05119133 413.36380196 C-68.69910882 413.96709223 -85.34736659 414.54221335 -102 415 C-102.90625704 415.02501886 -103.81251409 415.05003772 -104.74623346 415.07581472 C-110.02172665 415.21632749 -115.29548071 415.31120235 -120.57250977 415.37084961 C-121.75387229 415.3970894 -122.93523481 415.42332918 -124.1523962 415.45036411 C-133.86314701 415.47511702 -141.08135518 412.68256185 -148.20703125 406.0546875 C-155.12990955 398.12128012 -156.14419672 389.21511427 -156.15821838 379.02101135 C-156.16562535 377.86047813 -156.16562535 377.86047813 -156.17318195 376.67649978 C-156.18846373 374.10017181 -156.19689212 371.52386857 -156.20532227 368.94750977 C-156.21490813 367.09428187 -156.22491862 365.24105613 -156.23532104 363.38783264 C-156.26229943 358.36775992 -156.28334716 353.34767787 -156.30332303 348.32757306 C-156.32522628 343.0771651 -156.3525937 337.82678567 -156.37937927 332.57640076 C-156.42924756 322.63892909 -156.47420811 312.70144152 -156.51740164 302.76393884 C-156.56682418 291.4483744 -156.62172368 280.13283859 -156.67708123 268.81730187 C-156.79081124 245.54489465 -156.89766977 222.27245994 -157 199 C-157.67111816 198.8146167 -158.34223633 198.6292334 -159.03369141 198.43823242 C-159.92233887 198.18404541 -160.81098633 197.9298584 -161.7265625 197.66796875 C-163.04261475 197.2970813 -163.04261475 197.2970813 -164.38525391 196.91870117 C-170.22869783 194.86558451 -174.54781412 191.42686744 -177.4375 185.9375 C-180.17622118 179.93196341 -180.25958257 173.69074009 -180.53515625 167.203125 C-180.59962196 165.78081573 -180.59962196 165.78081573 -180.66539001 164.32977295 C-180.75540254 162.32604988 -180.84354075 160.32224186 -180.92993164 158.31835938 C-181.06144051 155.27452238 -181.1991682 152.23101587 -181.33789062 149.1875 C-181.4248493 147.23439144 -181.51144934 145.28126688 -181.59765625 143.328125 C-181.63826675 142.42781555 -181.67887726 141.5275061 -181.72071838 140.59991455 C-182.62666821 119.33543441 -182.62666821 119.33543441 -176.1640625 111.8828125 C-170.16363328 106.34218629 -164.88331459 104.72408759 -156.68798828 104.87158203 C-155.22388803 104.89070416 -153.75978682 104.90975396 -152.29568481 104.92874146 C-151.1419808 104.94922735 -151.1419808 104.94922735 -149.96496964 104.97012711 C-145.84147198 105.03501975 -141.71767544 105.03922101 -137.59375 105.0546875 C-132.36853945 105.07814416 -127.14518582 105.1185858 -121.92089844 105.22265625 C-98.0051065 106.66665443 -98.0051065 106.66665443 -77.38096619 96.67150879 C-76.34309044 95.61284188 -75.32511098 94.53411144 -74.33300781 93.43243408 C-72.49102241 91.45305883 -70.40009676 89.98903484 -68.16796875 88.4765625 C-67.50539063 88.00089844 -66.8428125 87.52523437 -66.16015625 87.03515625 C-65.50917969 86.56980469 -64.85820312 86.10445313 -64.1875 85.625 C-57.92619968 81.12605868 -51.70005938 76.582956 -45.5 72 C-38.44661488 66.78804626 -31.36219984 61.62180916 -24.2421875 56.5012207 C-20.98090441 54.15571233 -17.7249387 51.8054776 -14.5 49.41015625 C-13.51 48.67667969 -12.52 47.94320312 -11.5 47.1875 C-10.6646875 46.56230469 -9.829375 45.93710938 -8.96875 45.29296875 C-7 44 -7 44 -5 44 C-5.55429688 43.0821875 -6.10859375 42.164375 -6.6796875 41.21875 C-13.47795458 29.79423099 -16.5506407 20.57194439 -15 7 C-12.04171197 0.62153511 -6.70308675 -1.14505704 0 0 Z M-8.6875 4.9375 C-11.76755368 9.01649001 -12.26621755 11.94947281 -12 17 C-10.79941992 24.41821835 -9.00611439 33.77305648 -2.87109375 38.71484375 C-2.25363281 39.13894531 -1.63617188 39.56304687 -1 40 C3.41542903 29.75209727 6.03861745 18.76964654 2 8 C0.29659427 4.99167569 0.29659427 4.99167569 -2 3 C-6.01139734 2.61013228 -6.01139734 2.61013228 -8.6875 4.9375 Z M-6.37890625 48.16796875 C-7.0433374 48.64226318 -7.70776855 49.11655762 -8.39233398 49.60522461 C-9.10848877 50.12737549 -9.82464355 50.64952637 -10.5625 51.1875 C-11.68990601 51.99682983 -11.68990601 51.99682983 -12.84008789 52.82250977 C-15.23158874 54.54170313 -17.61591541 56.27054166 -20 58 C-21.49695569 59.07873604 -22.99434262 60.15687394 -24.4921875 61.234375 C-27.48393016 63.38848233 -30.47193998 65.54762278 -33.45703125 67.7109375 C-36.49160762 69.90994376 -39.53072072 72.10242123 -42.57421875 74.2890625 C-50.58457974 80.04822401 -58.54457771 85.86339451 -66.41845703 91.80810547 C-71.27762095 95.47439713 -76.19335105 99.04910082 -81.15625 102.57421875 C-81.7646875 103.04472656 -82.373125 103.51523438 -83 104 C-83 104.33 -83 104.66 -83 105 C-29.87 105 23.26 105 78 105 C70.0069069 97.0069069 60.84006268 90.54273994 51.63916016 84.01928711 C38.56101179 74.73681844 25.73896805 65.10860266 13.02905273 55.32958984 C4.0136087 46.97281691 4.0136087 46.97281691 -6.37890625 48.16796875 Z " fill="#F0ECEB" transform="translate(240,33)"/>
<path d="M0 0 C3.77842332 2.87488731 5.61764264 5.51340156 7 10 C7.33623309 13.02424218 7.37919993 16.02145117 7.375 19.0625 C7.37910889 20.32525757 7.37910889 20.32525757 7.38330078 21.61352539 C7.28720701 27.81038727 6.19521668 32.93896865 3.6796875 38.65234375 C2.81576775 40.92785795 2.81576775 40.92785795 3.44921875 42.98046875 C5.80391085 46.04690657 8.82861241 48.1357079 11.9375 50.375 C12.64479248 50.89465332 13.35208496 51.41430664 14.08081055 51.94970703 C15.5999082 53.06489329 17.12156443 54.17660105 18.64550781 55.28515625 C20.97643949 56.98284021 23.29821747 58.6922713 25.6171875 60.40625 C29.59939386 63.34927585 33.58712519 66.28469232 37.57666016 69.21777344 C41.55322524 72.1423075 45.52643221 75.07139564 49.5 78 C51.06770439 79.15495327 52.63541273 80.30990117 54.203125 81.46484375 C57.52707713 83.91396346 60.84980771 86.36473056 64.171875 88.81640625 C65.02201172 89.44353516 65.87214844 90.07066406 66.74804688 90.71679688 C68.36424847 91.90907674 69.98015493 93.10175681 71.59570312 94.29492188 C72.33240234 94.83826172 73.06910156 95.38160156 73.828125 95.94140625 C74.4665332 96.41263916 75.10494141 96.88387207 75.76269531 97.36938477 C76.50100586 97.90748779 77.23931641 98.44559082 78 99 C78.72989624 99.60985906 78.72989624 99.60985906 79.47453785 100.2320385 C83.81667551 103.68447212 87.25736201 104.71603512 92.82788086 104.59594727 C93.57683121 104.6000058 94.32578156 104.60406433 95.09742737 104.60824585 C96.71190856 104.61373573 98.32646151 104.60783192 99.94087029 104.59158516 C102.50231069 104.56603248 105.06215226 104.57100565 107.62367249 104.58348083 C113.06179299 104.60417063 118.49941263 104.58458507 123.9375 104.5625 C130.23962814 104.54134211 136.54123759 104.53692187 142.84335518 104.56300163 C145.35622717 104.56634489 147.86809108 104.54520262 150.38084412 104.52259827 C159.2247034 104.50669012 166.00649373 104.69093185 173.0234375 110.74609375 C173.46945312 111.30425781 173.91546875 111.86242187 174.375 112.4375 C175.06722656 113.27087891 175.06722656 113.27087891 175.7734375 114.12109375 C178.52489738 118.33590968 179.33990883 122.46136857 179.8515625 127.41796875 C179.98103271 128.66433105 180.11050293 129.91069336 180.24389648 131.19482422 C180.37219251 132.52559513 180.49920374 133.85649046 180.625 135.1875 C180.6897049 135.85896057 180.75440979 136.53042114 180.82107544 137.222229 C183.74131211 167.8629827 183.74131211 167.8629827 178 177 C176.2890625 179.0234375 176.2890625 179.0234375 174.625 180.375 C174.08101563 180.83648437 173.53703125 181.29796875 172.9765625 181.7734375 C168.27778493 184.68927971 163.44037799 185.29119642 158.0078125 185.5625 C157.32724289 185.59859375 156.64667328 185.6346875 155.94548035 185.671875 C153.67233101 185.78985913 151.39879223 185.89518906 149.125 186 C147.47938765 186.08156547 145.83379899 186.16360981 144.18823242 186.24609375 C138.79280981 186.51222576 133.3965255 186.75742226 128 187 C127.09264099 187.04125 126.18528198 187.0825 125.25042725 187.125 C102.44687287 188.16044508 79.63855951 189.02669072 56.82427979 189.78697205 C26.00215939 190.81892614 -4.81019826 192.0541011 -35.62268066 193.33856201 C-42.1051728 193.60847027 -48.5877433 193.87648129 -55.0703125 194.14453125 C-56.34960632 194.19744827 -57.62890015 194.2503653 -58.94696045 194.30488586 C-70.20907805 194.77067711 -81.47121821 195.23592064 -92.73339844 195.70019531 C-97.59735737 195.90072882 -102.46128613 196.10197451 -107.32519531 196.30371094 C-113.15775539 196.54543289 -118.99040798 196.78479651 -124.82313538 197.02244568 C-126.97122909 197.11032648 -129.1192915 197.19897617 -131.26731873 197.28846741 C-163.60064465 198.63418148 -163.60064465 198.63418148 -172.25 192.8125 C-179.47201326 185.42635007 -180.11576645 177.07649017 -180.53515625 167.203125 C-180.59962196 165.78081573 -180.59962196 165.78081573 -180.66539001 164.32977295 C-180.75540254 162.32604988 -180.84354075 160.32224186 -180.92993164 158.31835938 C-181.06144051 155.27452238 -181.1991682 152.23101587 -181.33789062 149.1875 C-181.4248493 147.23439144 -181.51144934 145.28126688 -181.59765625 143.328125 C-181.63826675 142.42781555 -181.67887726 141.5275061 -181.72071838 140.59991455 C-182.62666821 119.33543441 -182.62666821 119.33543441 -176.1640625 111.8828125 C-170.16363328 106.34218629 -164.88331459 104.72408759 -156.68798828 104.87158203 C-155.22388803 104.89070416 -153.75978682 104.90975396 -152.29568481 104.92874146 C-151.1419808 104.94922735 -151.1419808 104.94922735 -149.96496964 104.97012711 C-145.84147198 105.03501975 -141.71767544 105.03922101 -137.59375 105.0546875 C-132.36853945 105.07814416 -127.14518582 105.1185858 -121.92089844 105.22265625 C-98.0051065 106.66665443 -98.0051065 106.66665443 -77.38096619 96.67150879 C-76.34309044 95.61284188 -75.32511098 94.53411144 -74.33300781 93.43243408 C-72.49102241 91.45305883 -70.40009676 89.98903484 -68.16796875 88.4765625 C-67.50539063 88.00089844 -66.8428125 87.52523437 -66.16015625 87.03515625 C-65.50917969 86.56980469 -64.85820312 86.10445313 -64.1875 85.625 C-57.92619968 81.12605868 -51.70005938 76.582956 -45.5 72 C-38.44661488 66.78804626 -31.36219984 61.62180916 -24.2421875 56.5012207 C-20.98090441 54.15571233 -17.7249387 51.8054776 -14.5 49.41015625 C-13.51 48.67667969 -12.52 47.94320312 -11.5 47.1875 C-10.6646875 46.56230469 -9.829375 45.93710938 -8.96875 45.29296875 C-7 44 -7 44 -5 44 C-5.55429688 43.0821875 -6.10859375 42.164375 -6.6796875 41.21875 C-13.47795458 29.79423099 -16.5506407 20.57194439 -15 7 C-12.04171197 0.62153511 -6.70308675 -1.14505704 0 0 Z M-8.6875 4.9375 C-11.76755368 9.01649001 -12.26621755 11.94947281 -12 17 C-10.79941992 24.41821835 -9.00611439 33.77305648 -2.87109375 38.71484375 C-2.25363281 39.13894531 -1.63617188 39.56304687 -1 40 C3.41542903 29.75209727 6.03861745 18.76964654 2 8 C0.29659427 4.99167569 0.29659427 4.99167569 -2 3 C-6.01139734 2.61013228 -6.01139734 2.61013228 -8.6875 4.9375 Z M-6.37890625 48.16796875 C-7.0433374 48.64226318 -7.70776855 49.11655762 -8.39233398 49.60522461 C-9.10848877 50.12737549 -9.82464355 50.64952637 -10.5625 51.1875 C-11.68990601 51.99682983 -11.68990601 51.99682983 -12.84008789 52.82250977 C-15.23158874 54.54170313 -17.61591541 56.27054166 -20 58 C-21.49695569 59.07873604 -22.99434262 60.15687394 -24.4921875 61.234375 C-27.48393016 63.38848233 -30.47193998 65.54762278 -33.45703125 67.7109375 C-36.49160762 69.90994376 -39.53072072 72.10242123 -42.57421875 74.2890625 C-50.58457974 80.04822401 -58.54457771 85.86339451 -66.41845703 91.80810547 C-71.27762095 95.47439713 -76.19335105 99.04910082 -81.15625 102.57421875 C-81.7646875 103.04472656 -82.373125 103.51523438 -83 104 C-83 104.33 -83 104.66 -83 105 C-29.87 105 23.26 105 78 105 C70.0069069 97.0069069 60.84006268 90.54273994 51.63916016 84.01928711 C38.56101179 74.73681844 25.73896805 65.10860266 13.02905273 55.32958984 C4.0136087 46.97281691 4.0136087 46.97281691 -6.37890625 48.16796875 Z " fill="#7F0101" transform="translate(240,33)"/>
<path d="M0 0 C3.77842332 2.87488731 5.61764264 5.51340156 7 10 C7.33623309 13.02424218 7.37919993 16.02145117 7.375 19.0625 C7.37910889 20.32525757 7.37910889 20.32525757 7.38330078 21.61352539 C7.28720701 27.81038727 6.19521668 32.93896865 3.6796875 38.65234375 C2.81576775 40.92785795 2.81576775 40.92785795 3.44921875 42.98046875 C5.80391085 46.04690657 8.82861241 48.1357079 11.9375 50.375 C12.64479248 50.89465332 13.35208496 51.41430664 14.08081055 51.94970703 C15.5999082 53.06489329 17.12156443 54.17660105 18.64550781 55.28515625 C20.97643949 56.98284021 23.29821747 58.6922713 25.6171875 60.40625 C29.59939386 63.34927585 33.58712519 66.28469232 37.57666016 69.21777344 C40.76399378 71.56187332 43.94915878 73.90890805 47.1340332 76.25634766 C48.7065256 77.41523123 50.27927798 78.57376212 51.85229492 79.73193359 C55.94010686 82.74204581 60.023833 85.75749017 64.1015625 88.78125 C64.94267578 89.40386719 65.78378906 90.02648437 66.65039062 90.66796875 C68.24151509 91.8459283 69.8314589 93.02548517 71.41992188 94.20703125 C75.95646477 97.56239131 80.56592179 100.71588168 85.34326172 103.72070312 C86.16334717 104.35395508 86.16334717 104.35395508 87 105 C87 105.66 87 106.32 87 107 C87.67417969 107.22171875 88.34835937 107.4434375 89.04296875 107.671875 C92.87106742 109.39123239 95.97349396 111.73171075 99.3125 114.25 C100.31434326 114.99479614 100.31434326 114.99479614 101.33642578 115.75463867 C104.69628519 118.25590374 108.03625515 120.78314784 111.375 123.3125 C116.27083257 127.00287919 121.40416031 130.34308105 126.5703125 133.640625 C127.39273437 134.17171875 128.21515625 134.7028125 129.0625 135.25 C129.81660156 135.72953125 130.57070313 136.2090625 131.34765625 136.703125 C132.16556641 137.34507812 132.16556641 137.34507812 133 138 C133 138.66 133 139.32 133 140 C135.25760857 140.78670551 135.25760857 140.78670551 138 141 C138.75925781 140.52175781 139.51851563 140.04351562 140.30078125 139.55078125 C144.92683233 136.89297766 149.82146297 137.21928003 155 138 C158.48242391 140.52646441 159.65226822 141.95680465 161 146 C161.37275294 151.0321647 161.1569119 154.00124492 158 158 C154.67528682 161.479351 152.85326644 162.86456088 148.0625 163.625 C143.50458577 163.32755454 140.14993086 161.23506412 137 158 C134.59969289 154.21213994 134.72224731 150.71495878 134.63671875 146.33984375 C134.2105376 143.80184934 134.2105376 143.80184934 131.80859375 142.4296875 C130.88175781 141.95789063 129.95492188 141.48609375 129 141 C120.35406512 135.25717228 112.00711572 129.10950341 103.71240234 122.8737793 C100.30149322 120.33043216 96.94962178 117.88977089 93.21875 115.8359375 C90.18598925 114.1060861 87.90342263 112.32341154 85.375 109.9375 C82.39380689 107.13388699 79.50698164 105.09231768 76 103 C73.06744049 100.92466771 70.19285042 98.77197922 67.3125 96.625 C60.95217315 91.90699385 54.5634363 87.23573719 48.125 82.625 C41.49295149 77.86491838 34.97959677 72.96524677 28.5 68 C25.86855765 65.99184507 23.23570963 63.98556265 20.6015625 61.98095703 C18.86530297 60.65888404 17.13092855 59.33433172 15.3984375 58.00732422 C12.94375718 56.1348798 10.47447629 54.28366739 8 52.4375 C6.89688477 51.58768555 6.89688477 51.58768555 5.77148438 50.72070312 C1.97430602 47.85077957 1.97430602 47.85077957 -2.546875 46.828125 C-6.14836271 48.54858091 -9.12577078 50.84590222 -12.25 53.3125 C-13.68328422 54.41615862 -15.11823345 55.51765771 -16.5546875 56.6171875 C-17.29041992 57.18147461 -18.02615234 57.74576172 -18.78417969 58.32714844 C-22.25580336 60.94807896 -25.81017805 63.44557352 -29.375 65.9375 C-41.70922603 74.58804754 -53.92334059 83.39003601 -65.94580078 92.46948242 C-71.0594241 96.32154195 -76.23782918 100.07763083 -81.4375 103.8125 C-86.67161737 107.57248093 -91.84762621 111.37248062 -96.90625 115.3671875 C-99.55377926 117.43186517 -102.23826539 119.4409012 -104.9375 121.4375 C-105.85402344 122.11683594 -106.77054688 122.79617187 -107.71484375 123.49609375 C-110 125 -110 125 -112 125 C-112 125.66 -112 126.32 -112 127 C-113.51293945 128.28100586 -113.51293945 128.28100586 -115.61328125 129.71484375 C-116.36673828 130.23626953 -117.12019531 130.75769531 -117.89648438 131.29492188 C-119.09241211 132.10799805 -119.09241211 132.10799805 -120.3125 132.9375 C-121.87295966 134.00639567 -123.43162355 135.07791874 -124.98828125 136.15234375 C-125.68477783 136.62663818 -126.38127441 137.10093262 -127.09887695 137.58959961 C-129.03820319 138.94865784 -129.03820319 138.94865784 -130.62573242 140.67797852 C-132 142 -132 142 -134 142 C-133.505 142.825 -133.01 143.65 -132.5 144.5 C-130.23070124 149.79503043 -130.31673463 153.77938755 -132 159.25 C-134.73055656 163.00451527 -137.62923324 164.56458214 -142 166 C-146.31782455 166.59556201 -148.34813171 166.32593414 -152.25 164.375 C-155.78149384 161.3250735 -157.56117758 158.70878037 -158.31640625 154.046875 C-158.61962957 148.92142272 -157.35654809 146.00921021 -154 142 C-151.31416567 139.26251501 -150.03328458 139.00250637 -146.109375 138.70703125 C-144.65595991 138.72685055 -143.20268833 138.76245155 -141.75 138.8125 C-141.00492188 138.82603516 -140.25984375 138.83957031 -139.4921875 138.85351562 C-137.66114584 138.88872796 -135.83047831 138.94253149 -134 139 C-134 138.34 -134 137.68 -134 137 C-132.30729167 136.08854167 -130.61458333 135.17708333 -128.921875 134.265625 C-126.63567654 132.76007968 -124.93107096 130.93827645 -123 129 C-121.2742006 127.67617251 -119.5223141 126.38587489 -117.75 125.125 C-114.47686643 122.77838836 -111.21237381 120.42919176 -108 118 C-103.03971327 114.27978495 -98.01445358 110.64687533 -93 107 C-116.43 106.67 -139.86 106.34 -164 106 C-164 105.67 -164 105.34 -164 105 C-163.09592407 105.01411926 -162.19184814 105.02823853 -161.26037598 105.04278564 C-152.67079602 105.16606365 -144.08313562 105.23018321 -135.49263763 105.23059464 C-131.07756369 105.23281939 -126.66495862 105.25659093 -122.25048828 105.33251953 C-98.14669626 106.72719537 -98.14669626 106.72719537 -77.36201477 96.66519165 C-76.32821066 95.60812471 -75.31449183 94.53084388 -74.32696533 93.43041992 C-72.48894633 91.4491029 -70.39913472 89.98788965 -68.16796875 88.4765625 C-67.50539063 88.00089844 -66.8428125 87.52523437 -66.16015625 87.03515625 C-65.50917969 86.56980469 -64.85820312 86.10445313 -64.1875 85.625 C-57.92619968 81.12605868 -51.70005938 76.582956 -45.5 72 C-38.44661488 66.78804626 -31.36219984 61.62180916 -24.2421875 56.5012207 C-20.98090441 54.15571233 -17.7249387 51.8054776 -14.5 49.41015625 C-13.51 48.67667969 -12.52 47.94320312 -11.5 47.1875 C-10.6646875 46.56230469 -9.829375 45.93710938 -8.96875 45.29296875 C-7 44 -7 44 -5 44 C-5.55429688 43.0821875 -6.10859375 42.164375 -6.6796875 41.21875 C-13.47795458 29.79423099 -16.5506407 20.57194439 -15 7 C-12.04171197 0.62153511 -6.70308675 -1.14505704 0 0 Z M-8.6875 4.9375 C-11.76755368 9.01649001 -12.26621755 11.94947281 -12 17 C-10.79941992 24.41821835 -9.00611439 33.77305648 -2.87109375 38.71484375 C-2.25363281 39.13894531 -1.63617188 39.56304687 -1 40 C3.41542903 29.75209727 6.03861745 18.76964654 2 8 C0.29659427 4.99167569 0.29659427 4.99167569 -2 3 C-6.01139734 2.61013228 -6.01139734 2.61013228 -8.6875 4.9375 Z " fill="#605981" transform="translate(240,33)"/>
<path d="M0 0 C0.75 1.75 0.75 1.75 1 4 C-2.03397887 7.96688681 -6.54819166 10.62280396 -10.625 13.4375 C-12.16204397 14.51088063 -13.69848303 15.58512788 -15.234375 16.66015625 C-16.02392578 17.21203613 -16.81347656 17.76391602 -17.62695312 18.33251953 C-30.09316668 27.09221486 -42.3383751 36.16668817 -54.59130859 45.22070312 C-58.64184966 48.21283198 -62.69592712 51.20015914 -66.75 54.1875 C-67.53890625 54.76902832 -68.3278125 55.35055664 -69.140625 55.94970703 C-72.79211845 58.64048101 -76.44558406 61.32846043 -80.10546875 64.0078125 C-80.74814697 64.47832031 -81.3908252 64.94882813 -82.05297852 65.43359375 C-83.28873531 66.33779823 -84.5248871 67.24146319 -85.76147461 68.14453125 C-88.70272775 70.29684505 -91.62659228 72.46787428 -94.5234375 74.6796875 C-95.079104 75.1027417 -95.63477051 75.5257959 -96.20727539 75.96166992 C-97.71042521 77.10955057 -99.20890366 78.26354115 -100.70703125 79.41796875 C-103 81 -103 81 -105 81 C-105 81.66 -105 82.32 -105 83 C-106.51293945 84.28100586 -106.51293945 84.28100586 -108.61328125 85.71484375 C-109.36673828 86.23626953 -110.12019531 86.75769531 -110.89648438 87.29492188 C-112.09241211 88.10799805 -112.09241211 88.10799805 -113.3125 88.9375 C-114.87295966 90.00639567 -116.43162355 91.07791874 -117.98828125 92.15234375 C-118.68477783 92.62663818 -119.38127441 93.10093262 -120.09887695 93.58959961 C-122.03820319 94.94865784 -122.03820319 94.94865784 -123.62573242 96.67797852 C-125 98 -125 98 -127 98 C-126.2575 99.2375 -126.2575 99.2375 -125.5 100.5 C-123.23070124 105.79503043 -123.31673463 109.77938755 -125 115.25 C-127.73055656 119.00451527 -130.62923324 120.56458214 -135 122 C-139.31782455 122.59556201 -141.34813171 122.32593414 -145.25 120.375 C-148.78149384 117.3250735 -150.56117758 114.70878037 -151.31640625 110.046875 C-151.61962957 104.92142272 -150.35654809 102.00921021 -147 98 C-144.31416567 95.26251501 -143.03328458 95.00250637 -139.109375 94.70703125 C-137.65595991 94.72685055 -136.20268833 94.76245155 -134.75 94.8125 C-133.63238281 94.83280273 -133.63238281 94.83280273 -132.4921875 94.85351562 C-130.66114584 94.88872796 -128.83047831 94.94253149 -127 95 C-127 94.34 -127 93.68 -127 93 C-125.30729167 92.08854167 -123.61458333 91.17708333 -121.921875 90.265625 C-119.63567654 88.76007968 -117.93107096 86.93827645 -116 85 C-114.2742006 83.67617251 -112.5223141 82.38587489 -110.75 81.125 C-107.47686643 78.77838836 -104.21237381 76.42919176 -101 74 C-96.03971327 70.27978495 -91.01445358 66.64687533 -86 63 C-109.43 62.67 -132.86 62.34 -157 62 C-157 61.67 -157 61.34 -157 61 C-156.09592407 61.01411926 -155.19184814 61.02823853 -154.26037598 61.04278564 C-145.67079602 61.16606365 -137.08313562 61.23018321 -128.49263763 61.23059464 C-124.07756369 61.23281939 -119.66495862 61.25659093 -115.25048828 61.33251953 C-91.14669626 62.72719537 -91.14669626 62.72719537 -70.36201477 52.66519165 C-69.32821066 51.60812471 -68.31449183 50.53084388 -67.32696533 49.43041992 C-65.48894633 47.4491029 -63.39913472 45.98788965 -61.16796875 44.4765625 C-60.50539063 44.00089844 -59.8428125 43.52523437 -59.16015625 43.03515625 C-58.50917969 42.56980469 -57.85820312 42.10445312 -57.1875 41.625 C-50.92619968 37.12605868 -44.70005938 32.582956 -38.5 28 C-30.03828249 21.74738803 -21.51888713 15.57783368 -12.98144531 9.42919922 C-8.64384774 6.30052793 -4.32157533 3.15075206 0 0 Z " fill="#635C84" transform="translate(233,77)"/>
<path d="M0 0 C0.86882812 0.01546875 1.73765625 0.0309375 2.6328125 0.046875 C4.875 0.25 4.875 0.25 6.875 1.25 C6.875 1.91 6.875 2.57 6.875 3.25 C4.09161238 5.41887347 1.18948914 7.3774216 -1.71875 9.375 C-2.5128125 9.99375 -3.306875 10.6125 -4.125 11.25 C-4.125 11.91 -4.125 12.57 -4.125 13.25 C-0.28836928 11.90070536 2.52672569 10.17248975 5.6875 7.625 C6.47769531 6.99335938 7.26789063 6.36171875 8.08203125 5.7109375 C8.67371094 5.22882813 9.26539062 4.74671875 9.875 4.25 C13.00525051 7.24415266 13.82539301 8.50589516 14.125 13 C14.03514445 17.13335547 13.36025496 19.83277443 10.875 23.25 C6.20148381 26.63935183 1.66525758 28.10781594 -4.125 27.25 C-8.99487836 24.81506082 -11.34211438 22.40055847 -13.125 17.25 C-13.85041021 12.77215917 -13.5145957 9.987449 -11.375 5.9375 C-7.83746962 1.71211649 -5.62257436 -0.16783804 0 0 Z " fill="#F0E9E9" transform="translate(95.125,171.75)"/>
<path d="M0 0 C3.48242391 2.52646441 4.65226822 3.95680465 6 8 C6.37275294 13.0321647 6.1569119 16.00124492 3 20 C-0.32471318 23.479351 -2.14673356 24.86456088 -6.9375 25.625 C-11.59008057 25.3213767 -14.69423646 23.15924771 -18 20 C-20.81871079 16.44597336 -20.14479849 12.34395478 -20 8 C-15.99822092 8.61565832 -13.30464252 10.7729583 -10 13 C-9.34 13 -8.68 13 -8 13 C-7.67 12.34 -7.34 11.68 -7 11 C-7.804375 10.62875 -7.804375 10.62875 -8.625 10.25 C-11.5823982 8.69347463 -14.29724051 6.96564327 -17 5 C-17 4.34 -17 3.68 -17 3 C-11.73143675 -0.95142244 -6.34114559 -0.95599567 0 0 Z " fill="#EFE8E9" transform="translate(395,171)"/>
<path d="M0 0 C9.57930265 -0.04633418 19.15856675 -0.08187471 28.737957 -0.10362434 C33.18602201 -0.1140629 37.63401036 -0.12822345 42.08203125 -0.15087891 C46.37436934 -0.17260467 50.66663369 -0.18456808 54.95902252 -0.18975449 C56.59688732 -0.19345072 58.23474807 -0.20066849 59.87258148 -0.21146011 C62.16611972 -0.22597155 64.45935295 -0.2279781 66.75292969 -0.22705078 C68.05864929 -0.231492 69.3643689 -0.23593323 70.70965576 -0.24050903 C73.7695044 -0.01684817 75.4478513 0.37373142 78 2 C72.75 5.9375 72.75 5.9375 71.13134766 7.14819336 C68.27670054 9.28479784 65.43092831 11.43156194 62.6015625 13.6015625 C62.06047852 14.01414307 61.51939453 14.42672363 60.96191406 14.85180664 C59.43845872 16.01408588 57.91837243 17.18077707 56.3984375 18.34765625 C54 20 54 20 52 20 C52 20.66 52 21.32 52 22 C50.61401367 23.18579102 50.61401367 23.18579102 48.66796875 24.50390625 C47.95688965 24.9930249 47.24581055 25.48214355 46.51318359 25.98608398 C45.74570801 26.50630127 44.97823242 27.02651855 44.1875 27.5625 C37.99016042 31.83983653 32.08703627 36.25754876 26.3046875 41.08203125 C23.28613513 43.59408076 20.33303138 45.91685539 17 48 C15.515 47.505 15.515 47.505 14 47 C15.19769678 43.40690966 16.4676789 42.57906747 19.4375 40.3125 C20.24058594 39.68988281 21.04367188 39.06726563 21.87109375 38.42578125 C24 37 24 37 26 37 C26 36.34 26 35.68 26 35 C27.98 34.505 27.98 34.505 30 34 C30 33.34 30 32.68 30 32 C31.69270833 31.08854167 33.38541667 30.17708333 35.078125 29.265625 C37.36432346 27.76007968 39.06892904 25.93827645 41 24 C42.7257994 22.67617251 44.4776859 21.38587489 46.25 20.125 C49.52313357 17.77838836 52.78762619 15.42919176 56 13 C60.96028673 9.27978495 65.98554642 5.64687533 71 2 C47.57 1.67 24.14 1.34 0 1 C0 0.67 0 0.34 0 0 Z " fill="#713F5D" transform="translate(76,138)"/>
<path d="M0 0 C3.77842332 2.87488731 5.61764264 5.51340156 7 10 C7.33623001 13.02421451 7.37980179 16.0214634 7.375 19.0625 C7.37693359 20.32090698 7.37693359 20.32090698 7.37890625 21.60473633 C7.25929666 28.68548824 5.90672633 34.49879513 3 41 C2.05125 41.12375 1.1025 41.2475 0.125 41.375 C-3.08667191 41.71687177 -3.08667191 41.71687177 -5 44 C-12.50943779 31.56576812 -16.70690732 21.93966406 -15 7 C-12.04171197 0.62153511 -6.70308675 -1.14505704 0 0 Z M-8.6875 4.9375 C-11.76755368 9.01649001 -12.26621755 11.94947281 -12 17 C-10.79941992 24.41821835 -9.00611439 33.77305648 -2.87109375 38.71484375 C-2.25363281 39.13894531 -1.63617188 39.56304687 -1 40 C3.41542903 29.75209727 6.03861745 18.76964654 2 8 C0.29659427 4.99167569 0.29659427 4.99167569 -2 3 C-6.01139734 2.61013228 -6.01139734 2.61013228 -8.6875 4.9375 Z " fill="#665F87" transform="translate(240,33)"/>
<path d="M0 0 C1.98 0.495 1.98 0.495 4 1 C4 1.66 4 2.32 4 3 C5.01126953 3.33257812 5.01126953 3.33257812 6.04296875 3.671875 C9.87106742 5.39123239 12.97349396 7.73171075 16.3125 10.25 C17.31434326 10.99479614 17.31434326 10.99479614 18.33642578 11.75463867 C21.69628519 14.25590374 25.03625515 16.78314784 28.375 19.3125 C33.27083257 23.00287919 38.40416031 26.34308105 43.5703125 29.640625 C44.39273438 30.17171875 45.21515625 30.7028125 46.0625 31.25 C46.81660156 31.72953125 47.57070313 32.2090625 48.34765625 32.703125 C48.89292969 33.13109375 49.43820312 33.5590625 50 34 C50 34.66 50 35.32 50 36 C51.07314453 36.38285156 51.07314453 36.38285156 52.16796875 36.7734375 C55.20246618 38.0876888 57.63188911 39.69496016 60.3125 41.625 C61.19550781 42.25664062 62.07851563 42.88828125 62.98828125 43.5390625 C63.65214844 44.02117187 64.31601562 44.50328125 65 45 C64.67 45.99 64.34 46.98 64 48 C53 44 53 44 51 40 C49.35342399 38.96725356 47.68246266 37.97318918 46 37 C37.35406512 31.25717228 29.00711572 25.10950341 20.71240234 18.8737793 C17.29749547 16.32745123 13.93724753 13.88158827 10.20703125 11.81640625 C7.29928975 10.16951247 5.02033248 8.49223314 2.5625 6.25 C1.88316406 5.63640625 1.20382812 5.0228125 0.50390625 4.390625 C0.00761719 3.93171875 -0.48867188 3.4728125 -1 3 C-0.67 2.01 -0.34 1.02 0 0 Z " fill="#653F68" transform="translate(323,137)"/>
<path d="M0 0 C9.80549922 -0.06958022 19.61093948 -0.12285201 29.41663551 -0.15543652 C33.97006592 -0.17107726 38.52332712 -0.1922864 43.07666016 -0.22631836 C47.47275831 -0.25896866 51.86869395 -0.27686499 56.26490402 -0.28463173 C57.9402052 -0.29016507 59.61549772 -0.30097039 61.29072952 -0.31719017 C63.64144199 -0.33904018 65.9914871 -0.34196382 68.34228516 -0.34057617 C69.03136963 -0.351362 69.7204541 -0.36214783 70.43041992 -0.3732605 C75.00291319 -0.34414788 78.07215615 0.69644872 82 3 C81.34 3.66 80.68 4.32 80 5 C73.125 3.125 73.125 3.125 72 2 C69.94521547 1.87619162 67.8862104 1.82201797 65.82788086 1.79467773 C65.18399918 1.78477814 64.54011749 1.77487854 63.87672424 1.76467896 C61.73946869 1.73298472 59.60219087 1.70827551 57.46484375 1.68359375 C55.98653064 1.66303104 54.50822351 1.64203476 53.02992249 1.62062073 C49.13207829 1.56532941 45.23418042 1.51595143 41.33624268 1.46777344 C37.36148277 1.41760981 33.38680116 1.36189699 29.41210938 1.30664062 C21.60813915 1.19897276 13.80410398 1.09754713 6 1 C6.33 2.32 6.66 3.64 7 5 C7.66 5 8.32 5 9 5 C8.67 5.66 8.34 6.32 8 7 C6.66144944 6.21718695 5.32926356 5.42348123 4 4.625 C3.2575 4.18414062 2.515 3.74328125 1.75 3.2890625 C1.1725 2.86367187 0.595 2.43828125 0 2 C0 1.34 0 0.68 0 0 Z " fill="#75181A" transform="translate(327,138)"/>
<path d="M0 0 C0.28875 0.598125 0.5775 1.19625 0.875 1.8125 C2.04742026 4.19327792 2.04742026 4.19327792 4 7 C4.66 7 5.32 7 6 7 C6.33 7.99 6.66 8.98 7 10 C8.32 9.67 9.64 9.34 11 9 C11.33 9.99 11.66 10.98 12 12 C11.01 12.33 10.02 12.66 9 13 C8.67 13.66 8.34 14.32 8 15 C13.65057985 15.34776606 13.65057985 15.34776606 19 14 C20.29660434 11.50965614 20.29660434 11.50965614 21 9 C21.99 9.33 22.98 9.66 24 10 C21.78071806 12.90802461 20.07030857 14.95312762 17 17 C12.12828056 17.56836727 9.22390011 17.53690907 5.125 14.75 C2.63749171 12.71579619 0.82024375 11.18983682 0 8 C-0.13997827 5.30930651 -0.08997345 2.69920348 0 0 Z " fill="#F1E3E0" transform="translate(375,179)"/>
<path d="M0 0 C0.33 1.32 0.66 2.64 1 4 C-1.697328 7.39168966 -5.24208622 9.7443473 -8.75 12.25 C-9.73484375 12.95640625 -10.7196875 13.6628125 -11.734375 14.390625 C-12.48203125 14.92171875 -13.2296875 15.4528125 -14 16 C-15.32 15.01 -16.64 14.02 -18 13 C-12.06 8.71 -6.12 4.42 0 0 Z " fill="#68618A" transform="translate(233,77)"/>
<path d="M0 0 C0.33 0.66 0.66 1.32 1 2 C0.67 2.66 0.34 3.32 0 4 C-0.99 4.33 -1.98 4.66 -3 5 C-3.33 6.65 -3.66 8.3 -4 10 C-3.01 9.01 -2.02 8.02 -1 7 C-0.34 7.33 0.32 7.66 1 8 C0.67 9.65 0.34 11.3 0 13 C-1.65 13 -3.3 13 -5 13 C-4.01 16.3 -3.02 19.6 -2 23 C-5.80144382 19.44381062 -6.87885283 17.47799553 -7.3125 12.1875 C-7.26435467 7.83034762 -5.80463186 5.36555823 -3 2 C-2.01 1.34 -1.02 0.68 0 0 Z " fill="#F1E4E1" transform="translate(89,173)"/>
<path d="M0 0 C1.32 0.33 2.64 0.66 4 1 C2.47022724 5.00999606 -0.01531782 6.82653233 -3.4375 9.3125 C-4.40558594 10.03050781 -5.37367187 10.74851563 -6.37109375 11.48828125 C-7.23863281 11.98714844 -8.10617188 12.48601562 -9 13 C-9.99 12.67 -10.98 12.34 -12 12 C-10.80230322 8.40690966 -9.5323211 7.57906747 -6.5625 5.3125 C-5.75941406 4.68988281 -4.95632812 4.06726563 -4.12890625 3.42578125 C-2 2 -2 2 0 2 C0 1.34 0 0.68 0 0 Z " fill="#5A527A" transform="translate(102,173)"/>
<path d="M0 0 C0.66 0.33 1.32 0.66 2 1 C-0.04436998 4.06655496 -1.67364118 5.47427344 -5 7 C-4.96519531 8.09699219 -4.93039063 9.19398438 -4.89453125 10.32421875 C-4.86638135 11.77863045 -4.83908248 13.2330588 -4.8125 14.6875 C-4.77479492 15.7693457 -4.77479492 15.7693457 -4.73632812 16.87304688 C-4.67358913 21.45299374 -5.1111991 24.38899887 -8 28 C-10.1875 28.8125 -10.1875 28.8125 -12 29 C-11.360625 28.236875 -10.72125 27.47375 -10.0625 26.6875 C-6.73009955 22.34528123 -6.57015144 18.30812995 -7 13 C-7.89797113 9.63178728 -7.89797113 9.63178728 -9 7 C-6.03 4.69 -3.06 2.38 0 0 Z " fill="#6E171E" transform="translate(115,168)"/>
<path d="M0 0 C2.10884548 4.21769095 3.71636257 7.45599446 2.390625 12.1640625 C1.65325522 14.13270068 0.83211299 16.06949787 0 18 C-1.32 17.67 -2.64 17.34 -4 17 C-2.68 11.39 -1.36 5.78 0 0 Z " fill="#6C668D" transform="translate(243,56)"/>
<path d="M0 0 C6.62598897 6.16902421 6.62598897 6.16902421 7.25390625 10.921875 C7.36757859 14.95345396 7.13675345 18.4743568 5 22 C2.875 22.8125 2.875 22.8125 1 23 C1.495 22.154375 1.99 21.30875 2.5 20.4375 C4.19328488 16.55705549 4.45719971 14.19099736 4 10 C2.69972025 7.30480288 2.69972025 7.30480288 1 5 C0.31903578 3.67391178 -0.35330586 2.34313399 -1 1 C-0.67 0.67 -0.34 0.34 0 0 Z " fill="#751415" transform="translate(396,169)"/>
<path d="M0 0 C3.13025051 2.99415266 3.95039301 4.25589516 4.25 8.75 C4.17572043 12.84280454 3.38451418 15.58219635 1 19 C-2.1875 20.875 -2.1875 20.875 -5 22 C-5 21.34 -5 20.68 -5 20 C-3.68 19.67 -2.36 19.34 -1 19 C-0.67 17.68 -0.34 16.36 0 15 C0.66 15 1.32 15 2 15 C2 11.37 2 7.74 2 4 C1.01 4.33 0.02 4.66 -1 5 C-0.67 3.35 -0.34 1.7 0 0 Z " fill="#F4D8D6" transform="translate(105,176)"/>
<path d="M0 0 C3.49844386 0.63389235 5.84086876 2.05177694 8.75 4.0625 C9.94882812 4.88427734 9.94882812 4.88427734 11.171875 5.72265625 C12.07679688 6.35494141 12.07679688 6.35494141 13 7 C12.67 7.99 12.34 8.98 12 10 C7.88302072 8.54694849 4.45987796 6.67354206 1 4 C0.125 1.75 0.125 1.75 0 0 Z " fill="#5F527E" transform="translate(375,175)"/>
<path d="M0 0 C0 0.66 0 1.32 0 2 C-1.21236328 1.93039063 -1.21236328 1.93039063 -2.44921875 1.859375 C-9.09630601 1.50105451 -9.09630601 1.50105451 -15.125 3.875 C-15.74375 4.57625 -16.3625 5.2775 -17 6 C-17.66 6.66 -18.32 7.32 -19 8 C-19 6.35 -19 4.7 -19 3 C-17.35 2.67 -15.7 2.34 -14 2 C-14 1.34 -14 0.68 -14 0 C-8.48727081 -1.71084699 -5.46809845 -2.4606443 0 0 Z " fill="#7B191B" transform="translate(102,171)"/>
<path d="M0 0 C0 0.99 0 1.98 0 3 C0.33 3.66 0.66 4.32 1 5 C1.33 5.99 1.66 6.98 2 8 C4.00016466 9.20882096 4.00016466 9.20882096 6 10 C5.01 10.495 5.01 10.495 4 11 C-4.81548975 5.03416856 -4.81548975 5.03416856 -6 0 C-3.50907189 -1.24546405 -2.58919267 -0.7767578 0 0 Z " fill="#7E1213" transform="translate(69,218)"/>
<path d="M0 0 C0.66 0.33 1.32 0.66 2 1 C-0.73665096 5.73651127 -2.87888363 8.014261 -8 10 C-10.875 10.6875 -10.875 10.6875 -13 11 C-12.67 10.34 -12.34 9.68 -12 9 C-11.34 9 -10.68 9 -10 9 C-10 8.34 -10 7.68 -10 7 C-7.8125 5.2734375 -7.8125 5.2734375 -5 3.375 C-4.071875 2.74335938 -3.14375 2.11171875 -2.1875 1.4609375 C-1.1046875 0.73777344 -1.1046875 0.73777344 0 0 Z " fill="#720A17" transform="translate(138,151)"/>
<path d="M0 0 C0 0.66 0 1.32 0 2 C-1.6796875 3.5078125 -1.6796875 3.5078125 -3.875 5.125 C-4.59429687 5.66382813 -5.31359375 6.20265625 -6.0546875 6.7578125 C-8 8 -8 8 -10 8 C-10 8.66 -10 9.32 -10 10 C-11.32 10.33 -12.64 10.66 -14 11 C-11.21115751 5.57725071 -6.61903624 0 0 0 Z " fill="#832226" transform="translate(75,139)"/>
<path d="M0 0 C1.62490954 -0.02698189 3.24994633 -0.04638757 4.875 -0.0625 C5.77992187 -0.07410156 6.68484375 -0.08570313 7.6171875 -0.09765625 C10 0 10 0 12 1 C12 1.66 12 2.32 12 3 C10.03125 4.7265625 10.03125 4.7265625 7.5 6.625 C6.6646875 7.25664062 5.829375 7.88828125 4.96875 8.5390625 C4.3190625 9.02117187 3.669375 9.50328125 3 10 C2.67 9.01 2.34 8.02 2 7 C3.32 6.67 4.64 6.34 6 6 C5.67 4.68 5.34 3.36 5 2 C3.35 1.67 1.7 1.34 0 1 C0 0.67 0 0.34 0 0 Z " fill="#E9DCE2" transform="translate(90,172)"/>
<path d="M0 0 C0 4.95 0 9.9 0 15 C-0.66 15 -1.32 15 -2 15 C-3.38226016 12.23547967 -3.09525387 9.9538637 -3.0625 6.875 C-3.05347656 5.77929688 -3.04445312 4.68359375 -3.03515625 3.5546875 C-3.02355469 2.71164063 -3.01195312 1.86859375 -3 1 C-1 0 -1 0 0 0 Z " fill="#59537D" transform="translate(247,47)"/>
<path d="M0 0 C0 1.98 0 3.96 0 6 C-2.97 6.66 -5.94 7.32 -9 8 C-8.67 6.68 -8.34 5.36 -8 4 C-7.34 4 -6.68 4 -6 4 C-5.67 3.01 -5.34 2.02 -5 1 C-3 0 -3 0 0 0 Z " fill="#5B5482" transform="translate(242,73)"/>
<path d="M0 0 C0.53625 0.185625 1.0725 0.37125 1.625 0.5625 C4.08177023 1.15707367 4.08177023 1.15707367 6.875 0.5 C10.21529171 -0.03444667 12.71323933 0.29569414 16 1 C16 1.33 16 1.66 16 2 C15.34773438 2.03738281 14.69546875 2.07476562 14.0234375 2.11328125 C8.68377043 2.51493762 4.6795908 3.16761609 0 6 C-1.32 5.01 -2.64 4.02 -4 3 C-2.68 3 -1.36 3 0 3 C0 2.01 0 1.02 0 0 Z " fill="#81262A" transform="translate(377,169)"/>
<path d="M0 0 C1.98 0.495 1.98 0.495 4 1 C4 1.66 4 2.32 4 3 C6.475 3.99 6.475 3.99 9 5 C9 5.99 9 6.98 9 8 C5.08788267 6.84414715 2.1254959 5.64465038 -1 3 C-0.67 2.01 -0.34 1.02 0 0 Z " fill="#61456F" transform="translate(323,137)"/>
<path d="M0 0 C0.66 0 1.32 0 2 0 C2 4.29 2 8.58 2 13 C1.34 13 0.68 13 0 13 C-1.32630565 8.85529486 -1.98384711 3.96769422 0 0 Z " fill="#5E5683" transform="translate(226,46)"/>
<path d="M0 0 C0.66 0 1.32 0 2 0 C0.5019913 3.81311305 -1.62648024 5.72483551 -5 8 C-7.8125 8.75 -7.8125 8.75 -10 9 C-10 8.01 -10 7.02 -10 6 C-8.68 6 -7.36 6 -6 6 C-6 5.34 -6 4.68 -6 4 C-4.35 3.67 -2.7 3.34 -1 3 C-0.67 2.01 -0.34 1.02 0 0 Z " fill="#731417" transform="translate(416,208)"/>
<path d="M0 0 C0 0.66 0 1.32 0 2 C-6.625 5.125 -6.625 5.125 -10 4 C-7.53453745 -1.4592385 -5.69047474 -1.11335375 0 0 Z " fill="#5B5481" transform="translate(238,34)"/>
<path d="M0 0 C11.52164009 -0.55353075 11.52164009 -0.55353075 17 3 C16.34 3.66 15.68 4.32 15 5 C8.125 3.125 8.125 3.125 7 2 C4.67182036 1.63239269 2.3381615 1.29758419 0 1 C0 0.67 0 0.34 0 0 Z " fill="#802224" transform="translate(392,138)"/>
<path d="M0 0 C2.64 0 5.28 0 8 0 C3.375 4.875 3.375 4.875 0 6 C0 4.02 0 2.04 0 0 Z " fill="#73060F" transform="translate(140,139)"/>
<path d="M0 0 C4.875 4.75 4.875 4.75 6 7 C4.68 7.99 3.36 8.98 2 10 C0.02 6.535 0.02 6.535 -2 3 C-1.34 2.67 -0.68 2.34 0 2 C0 1.34 0 0.68 0 0 Z " fill="#6C658E" transform="translate(233,67)"/>
<path d="M0 0 C0.99 0.33 1.98 0.66 3 1 C0.78071806 3.90802461 -0.92969143 5.95312762 -4 8 C-6.04296875 8.1953125 -6.04296875 8.1953125 -8.1875 8.125 C-10.0746875 8.063125 -10.0746875 8.063125 -12 8 C-12 7.67 -12 7.34 -12 7 C-10.95199219 6.87044922 -10.95199219 6.87044922 -9.8828125 6.73828125 C-7.16031137 6.31795176 -4.61803791 5.86256547 -2 5 C-0.24431996 2.54251602 -0.24431996 2.54251602 0 0 Z " fill="#EECFCC" transform="translate(396,188)"/>
<path d="M0 0 C6.93 0 13.86 0 21 0 C21 0.33 21 0.66 21 1 C19.89140625 1.06058594 18.7828125 1.12117187 17.640625 1.18359375 C16.1770718 1.26802951 14.71353075 1.35267599 13.25 1.4375 C12.15558594 1.49647461 12.15558594 1.49647461 11.0390625 1.55664062 C7.5727027 1.76147098 4.34666974 2.0852002 1 3 C0.67 2.01 0.34 1.02 0 0 Z " fill="#780709" transform="translate(75,139)"/>
<path d="M0 0 C-2.01554557 2.72691459 -3.14158939 3.02980829 -6.5625 3.75 C-10 4 -10 4 -12 3 C-12 2.34 -12 1.68 -12 1 C-8.0186217 -0.3271261 -4.14954773 -0.06915913 0 0 Z " fill="#F1D4D5" transform="translate(400,218)"/>
<path d="M0 0 C4.875 3.625 4.875 3.625 6 7 C3.92446352 7.5534764 2.15634036 8 0 8 C0 5.36 0 2.72 0 0 Z " fill="#832023" transform="translate(410,142)"/>
<path d="M0 0 C-0.5625 1.9375 -0.5625 1.9375 -2 4 C-5.625 4.75 -5.625 4.75 -9 5 C-4.5 0 -4.5 0 0 0 Z " fill="#5E5782" transform="translate(159,134)"/>
<path d="M0 0 C-0.66 1.98 -1.32 3.96 -2 6 C-2.99 6 -3.98 6 -5 6 C-5.33 4.35 -5.66 2.7 -6 1 C-4 0 -4 0 0 0 Z " fill="#F3ECF1" transform="translate(90,185)"/>
<path d="M0 0 C0.33 0 0.66 0 1 0 C1.28875 1.175625 1.5775 2.35125 1.875 3.5625 C2.83313721 7.4018927 3.89205511 11.2013318 5 15 C1.95601671 12.15240273 0.11001599 10.30153445 -0.09765625 5.95703125 C-0.06510417 3.97135417 -0.03255208 1.98567708 0 0 Z " fill="#F3D2CF" transform="translate(82,181)"/>
<path d="M0 0 C1.32 0.66 2.64 1.32 4 2 C3.01 2.495 3.01 2.495 2 3 C2.66 4.32 3.32 5.64 4 7 C0.63408134 5.55746343 -1.51047079 3.66735273 -4 1 C-2.68 1.33 -1.36 1.66 0 2 C0 1.34 0 0.68 0 0 Z " fill="#663254" transform="translate(332,143)"/>
<path d="M0 0 C-2.297221 1.74271938 -4.59866729 3.39911152 -7 5 C-9.1875 4.625 -9.1875 4.625 -11 4 C-7.26280719 0.48264206 -5.13496308 -0.47767098 0 0 Z " fill="#730918" transform="translate(160,139)"/>
<path d="M0 0 C0.66 0.33 1.32 0.66 2 1 C1.67 2.32 1.34 3.64 1 5 C-0.875 5.625 -0.875 5.625 -3 6 C-3.66 5.34 -4.32 4.68 -5 4 C-3.35 2.68 -1.7 1.36 0 0 Z " fill="#6C6688" transform="translate(171,122)"/>
<path d="M0 0 C2 1 4 2 6 3 C5.67 3.99 5.34 4.98 5 6 C2.525 5.01 2.525 5.01 0 4 C0 2.68 0 1.36 0 0 Z " fill="#595676" transform="translate(382,179)"/>
<path d="M0 0 C1.65 1.32 3.3 2.64 5 4 C4.01 4.66 3.02 5.32 2 6 C0.35 5.01 -1.3 4.02 -3 3 C-2.01 2.01 -1.02 1.02 0 0 Z " fill="#6F5F8A" transform="translate(319,133)"/>
<path d="M0 0 C-1.32 1.32 -2.64 2.64 -4 4 C-4.99 3.67 -5.98 3.34 -7 3 C-6.67 2.01 -6.34 1.02 -6 0 C-3.50907189 -1.24546405 -2.58919267 -0.7767578 0 0 Z " fill="#5B5480" transform="translate(169,128)"/>
<path d="M0 0 C1.32 0.33 2.64 0.66 4 1 C2.35 2.98 0.7 4.96 -1 7 C-1.66 6.01 -2.32 5.02 -3 4 C-2.01 3.67 -1.02 3.34 0 3 C0 2.01 0 1.02 0 0 Z " fill="#DFDEDC" transform="translate(410,424)"/>
<path d="M0 0 C0.66 0 1.32 0 2 0 C2.680625 1.423125 2.680625 1.423125 3.375 2.875 C4.80238254 6.00313679 4.80238254 6.00313679 7 8 C4.03824877 7.38722388 2.61941217 6.74627478 0 5 C-0.1875 2.375 -0.1875 2.375 0 0 Z " fill="#761618" transform="translate(81,189)"/>
<path d="M0 0 C1.73662334 3.22515763 2.8905928 6.51329166 4 10 C3.34 10.66 2.68 11.32 2 12 C-0.60018816 8.09971775 -0.15085514 4.52565431 0 0 Z " fill="#F3D2CC" transform="translate(375,179)"/>
<path d="M0 0 C0.99 0.66 1.98 1.32 3 2 C3.1875 5.625 3.1875 5.625 3 9 C2.34 7.68 1.68 6.36 1 5 C0.01 5.495 0.01 5.495 -1 6 C-1.33 4.68 -1.66 3.36 -2 2 C-1.34 2 -0.68 2 0 2 C0 1.34 0 0.68 0 0 Z " fill="#F6E0DC" transform="translate(398,177)"/>
<path d="M0 0 C1.65 1.32 3.3 2.64 5 4 C3.02 4.99 3.02 4.99 1 6 C-0.32 4.68 -1.64 3.36 -3 2 C-2.01 2 -1.02 2 0 2 C0 1.34 0 0.68 0 0 Z " fill="#645F84" transform="translate(308,125)"/>
<path d="M0 0 C0 1.98 0 3.96 0 6 C-1.32 5.67 -2.64 5.34 -4 5 C-4.33 3.68 -4.66 2.36 -5 1 C-3 0 -3 0 0 0 Z " fill="#534B7C" transform="translate(242,73)"/>
<path d="M0 0 C2.475 0.495 2.475 0.495 5 1 C5 1.66 5 2.32 5 3 C6.32 3.66 7.64 4.32 9 5 C8.01 5.495 8.01 5.495 7 6 C5.83054208 5.19152271 4.66449539 4.37810888 3.5 3.5625 C2.8503125 3.11003906 2.200625 2.65757812 1.53125 2.19140625 C1.0259375 1.79824219 0.520625 1.40507812 0 1 C0 0.67 0 0.34 0 0 Z " fill="#7E2226" transform="translate(66,223)"/>
<path d="M0 0 C1.32 0.33 2.64 0.66 4 1 C3.34 2.32 2.68 3.64 2 5 C0.35 4.67 -1.3 4.34 -3 4 C-2.67 3.34 -2.34 2.68 -2 2 C-1.34 2 -0.68 2 0 2 C0 1.34 0 0.68 0 0 Z " fill="#665585" transform="translate(102,173)"/>
<path d="M0 0 C0.66 0.33 1.32 0.66 2 1 C-0.12055614 4.1808342 -1.63050557 5.31525278 -5 7 C-5.66 6.67 -6.32 6.34 -7 6 C-4.69 4.02 -2.38 2.04 0 0 Z " fill="#681126" transform="translate(147,144)"/>
<path d="M0 0 C2.97 0.495 2.97 0.495 6 1 C6.33 2.32 6.66 3.64 7 5 C4.11562221 3.70700306 2.12780579 2.34058637 0 0 Z " fill="#6F0A19" transform="translate(336,145)"/>
<path d="M0 0 C1.32 0 2.64 0 4 0 C4.33 1.32 4.66 2.64 5 4 C5.66 4 6.32 4 7 4 C6.67 4.66 6.34 5.32 6 6 C3.96166576 4.7260411 1.96147874 3.38938077 0 2 C0 1.34 0 0.68 0 0 Z " fill="#700A13" transform="translate(329,139)"/>
<path d="M0 0 C0.66 0.33 1.32 0.66 2 1 C1.67 2.65 1.34 4.3 1 6 C-0.32 5.67 -1.64 5.34 -3 5 C-2.625 3.0625 -2.625 3.0625 -2 1 C-1.34 0.67 -0.68 0.34 0 0 Z " fill="#645E85" transform="translate(242,68)"/>
<path d="M0 0 C2.04119788 1.61594832 4.04072937 3.2856382 6 5 C6 5.66 6 6.32 6 7 C3 7 3 7 0.8125 5 C0.214375 4.34 -0.38375 3.68 -1 3 C-0.67 2.01 -0.34 1.02 0 0 Z " fill="#741618" transform="translate(376,189)"/>
<path d="M0 0 C-0.66 1.65 -1.32 3.3 -2 5 C-3.65 5 -5.3 5 -7 5 C-2.25 0 -2.25 0 0 0 Z " fill="#E4E1EA" transform="translate(104,178)"/>
<path d="M0 0 C2.475 0.495 2.475 0.495 5 1 C5.33 1.99 5.66 2.98 6 4 C4.35 3.67 2.7 3.34 1 3 C0.67 2.01 0.34 1.02 0 0 Z " fill="#585279" transform="translate(302,123)"/>
<path d="M0 0 C1.32 0.33 2.64 0.66 4 1 C2.71034824 2.37562854 1.37310707 3.70766393 0 5 C-0.66 5 -1.32 5 -2 5 C-1.34 3.35 -0.68 1.7 0 0 Z " fill="#5A5280" transform="translate(214,91)"/>
<path d="M0 0 C0.625 1.875 0.625 1.875 1 4 C0.34 4.66 -0.32 5.32 -1 6 C-1.66 6 -2.32 6 -3 6 C-2.625 3.5625 -2.625 3.5625 -2 1 C-1.34 0.67 -0.68 0.34 0 0 Z " fill="#6A638D" transform="translate(246,43)"/>
<path d="M0 0 C0.66 0.33 1.32 0.66 2 1 C2 2.32 2 3.64 2 5 C1.01 5.33 0.02 5.66 -1 6 C-1.33 4.35 -1.66 2.7 -2 1 C-1.34 0.67 -0.68 0.34 0 0 Z " fill="#5E5780" transform="translate(244,39)"/>
</svg>
