<svg width="44" height="40" viewBox="0 0 44 40" fill="none" xmlns="http://www.w3.org/2000/svg">
<path d="M3.06602 27.8907C3.37236 28.5861 3.44056 29.3482 3.26186 30.0788L1.04311 36.2476C0.971616 36.5604 0.9901 36.8845 1.09681 37.1891C1.20351 37.4937 1.3949 37.7687 1.65283 37.9881C1.91076 38.2074 2.22667 38.3639 2.57061 38.4425C2.91454 38.5212 3.27511 38.5195 3.61811 38.4376L10.7285 36.5663C11.4946 36.4295 12.288 36.4893 13.0181 36.7388C17.4668 38.6086 22.5064 39.0042 27.2476 37.8558C31.9888 36.7074 36.127 34.0888 38.9321 30.462C41.7371 26.8352 43.0288 22.4333 42.5791 18.033C42.1295 13.6326 39.9675 9.51655 36.4745 6.41104C32.9815 3.30553 28.3821 1.41012 23.4877 1.05923C18.5932 0.708341 13.7184 1.92452 9.72319 4.49319C5.728 7.06185 2.86921 10.8179 1.65122 15.0987C0.433222 19.3795 0.934292 23.91 3.06602 27.8907Z" stroke="#9E9494" stroke-width="2" stroke-linecap="round" stroke-linejoin="round"/>
</svg>
