<svg width="25" height="25" viewBox="0 0 25 25" fill="none" xmlns="http://www.w3.org/2000/svg">
<path d="M11.1802 5.28763C13.6066 4.99847 16.061 5.5114 18.1686 6.7481C20.2761 7.9848 21.921 9.8773 22.8521 12.1366C22.9389 12.3705 22.9389 12.6277 22.8521 12.8616C22.4692 13.7897 21.9633 14.6621 21.3479 15.4553" stroke="black" stroke-width="2" stroke-linecap="round" stroke-linejoin="round"/>
<path d="M14.671 14.7479C14.0816 15.3171 13.2922 15.6321 12.4728 15.625C11.6535 15.6178 10.8697 15.2892 10.2903 14.7098C9.71089 14.1304 9.38224 13.3466 9.37512 12.5272C9.368 11.7079 9.68298 10.9185 10.2522 10.3291" stroke="black" stroke-width="2" stroke-linecap="round" stroke-linejoin="round"/>
<path d="M18.2075 18.2282C16.8257 19.0467 15.284 19.5584 13.687 19.7286C12.0901 19.8988 10.4752 19.7235 8.9519 19.2145C7.42865 18.7056 6.03269 17.875 4.85875 16.779C3.68481 15.683 2.76036 14.3473 2.14812 12.8626C2.0613 12.6287 2.0613 12.3714 2.14812 12.1376C3.07169 9.89783 4.69673 8.01803 6.77937 6.78027" stroke="black" stroke-width="2" stroke-linecap="round" stroke-linejoin="round"/>
<path d="M2.0835 2.0835L22.9168 22.9168" stroke="black" stroke-width="2" stroke-linecap="round" stroke-linejoin="round"/>
</svg>
