<svg width="25" height="25" viewBox="0 0 25 25" fill="none" xmlns="http://www.w3.org/2000/svg">
<path d="M16.6665 10.4165H18.7498" stroke="black" stroke-width="2" stroke-linecap="round" stroke-linejoin="round"/>
<path d="M16.6665 14.5835H18.7498" stroke="black" stroke-width="2" stroke-linecap="round" stroke-linejoin="round"/>
<path d="M6.42725 15.6251C6.64198 15.0147 7.04089 14.486 7.56893 14.112C8.09697 13.738 8.72809 13.5371 9.37516 13.5371C10.0222 13.5371 10.6534 13.738 11.1814 14.112C11.7094 14.486 12.1083 15.0147 12.3231 15.6251" stroke="black" stroke-width="2" stroke-linecap="round" stroke-linejoin="round"/>
<path d="M9.37484 13.5417C10.5254 13.5417 11.4582 12.6089 11.4582 11.4583C11.4582 10.3077 10.5254 9.375 9.37484 9.375C8.22424 9.375 7.2915 10.3077 7.2915 11.4583C7.2915 12.6089 8.22424 13.5417 9.37484 13.5417Z" stroke="black" stroke-width="2" stroke-linecap="round" stroke-linejoin="round"/>
<path d="M20.8335 5.2085H4.16683C3.01624 5.2085 2.0835 6.14124 2.0835 7.29183V17.7085C2.0835 18.8591 3.01624 19.7918 4.16683 19.7918H20.8335C21.9841 19.7918 22.9168 18.8591 22.9168 17.7085V7.29183C22.9168 6.14124 21.9841 5.2085 20.8335 5.2085Z" stroke="black" stroke-width="2" stroke-linecap="round" stroke-linejoin="round"/>
</svg>
