<svg width="65" height="80" viewBox="0 0 65 80" fill="none" xmlns="http://www.w3.org/2000/svg">
<path d="M47.5849 49.7042L48.7111 45.939L39.5913 37.7881L47.5849 49.7042Z" fill="#8B0E0E"/>
<mask id="mask0_304_395" style="mask-type:luminance" maskUnits="userSpaceOnUse" x="39" y="37" width="26" height="9">
<path d="M39.4883 37.6709H65V45.9481H39.4883V37.6709Z" fill="white"/>
</mask>
<g mask="url(#mask0_304_395)">
<path d="M39.5913 37.7881L48.7111 45.939L65.06 41.9749L39.5913 37.7881Z" fill="#EFBF04"/>
</g>
<path d="M23.3461 29.1666L27.1951 29.9694C28.7834 27.7525 30.8837 25.8571 33.3457 24.4143L32.4058 20.9821C31.5021 21.4513 30.6352 21.971 29.8093 22.5372L13.1123 11.7173L25.2177 26.6398C24.5317 27.4401 23.9058 28.2851 23.3461 29.1666Z" fill="#EFBF04"/>
<mask id="mask1_304_395" style="mask-type:luminance" maskUnits="userSpaceOnUse" x="38" y="0" width="14" height="22">
<path d="M38.0908 0H51.1961V21.8972H38.0908V0Z" fill="white"/>
</mask>
<g mask="url(#mask1_304_395)">
<path d="M44.7682 21.3716C46.2282 21.3716 47.6547 21.5064 49.0308 21.7614L51.0806 18.7416C50.0826 18.5055 49.0581 18.3225 48.0138 18.2005L44.7682 -0.00219727L41.5212 18.2005C40.3874 18.3335 39.2776 18.5367 38.1978 18.8033L40.2844 21.8047C41.7294 21.521 43.2283 21.3716 44.7682 21.3716Z" fill="#8B0E0E"/>
</g>
<path d="M21.0402 45.8803L24.3984 44.0148C24.0817 42.7245 23.9138 41.3836 23.9138 40.0085H0L20.3651 42.9099C20.5146 43.9239 20.7419 44.9152 21.0402 45.8803Z" fill="#8B0E0E"/>
<path d="M24.3506 36.1988L20.9712 34.3662C20.7071 35.2593 20.503 36.1738 20.3651 37.1078L0 40.0092H23.9138C23.9138 38.7031 24.0646 37.4287 24.3506 36.1988Z" fill="#EFBF04"/>
<mask id="mask2_304_395" style="mask-type:luminance" maskUnits="userSpaceOnUse" x="38" y="58" width="14" height="23">
<path d="M38.4404 58.1299H51.371V80.0002H38.4404V58.1299Z" fill="white"/>
</mask>
<g mask="url(#mask2_304_395)">
<path d="M44.7669 58.647C43.3055 58.647 41.8796 58.5122 40.5036 58.2566L38.4531 61.2769C39.4524 61.513 40.4756 61.6948 41.5199 61.8181L44.7669 80.0202L48.0125 61.8181C49.1469 61.6851 50.2568 61.4813 51.3359 61.2147L49.2493 58.2139C47.8043 58.4975 46.3054 58.647 44.7669 58.647Z" fill="#8B0E0E"/>
</g>
<path d="M27.3186 50.2168L23.4785 51.0568C24.004 51.8645 24.5849 52.6393 25.2177 53.3781L13.1123 68.3006L29.8093 57.4807C30.7048 58.095 31.6495 58.6538 32.6365 59.1547L33.5341 55.714C31.0543 54.2938 28.9336 52.4173 27.3186 50.2168Z" fill="#8B0E0E"/>
<path d="M25.0278 40.0087H31.416C31.8016 36.8706 33.2432 34.0156 35.4152 31.7346L33.6651 25.481C28.4536 28.6313 25.0278 33.9619 25.0278 40.0087Z" fill="#EFBF04"/>
<path d="M44.6385 22.4829C43.3826 22.4829 42.1533 22.5891 40.9629 22.791L43.8126 26.8991C45.3149 26.5166 46.9012 26.311 48.5408 26.311C54.2102 26.311 59.24 28.7585 62.3798 32.5347C59.2407 26.5934 52.4771 22.4829 44.6385 22.4829Z" fill="#8B0E0E"/>
<path d="M48.5405 57.1099C41.9284 57.1099 36.1874 53.7808 33.2987 48.8955L28.4907 49.9539C32.0278 54.5336 37.9402 57.5351 44.6382 57.5351C46.1276 57.5351 47.5774 57.3862 48.9719 57.105C48.8292 57.108 48.6852 57.1099 48.5405 57.1099Z" fill="#8B0E0E"/>
<path d="M31.416 40.0088H25.0278C25.0278 41.1959 25.1609 42.355 25.4128 43.4757L31.3969 40.1851C31.403 40.1265 31.4085 40.0674 31.416 40.0088Z" fill="#8B0E0E"/>
</svg>
