<svg width="25" height="25" viewBox="0 0 25 25" fill="none" xmlns="http://www.w3.org/2000/svg">
<path d="M22.9168 13.5415V6.24984C22.9168 5.6973 22.6973 5.1674 22.3066 4.7767C21.9159 4.386 21.386 4.1665 20.8335 4.1665H4.16683C3.6143 4.1665 3.08439 4.386 2.69369 4.7767C2.30299 5.1674 2.0835 5.6973 2.0835 6.24984V18.7498C2.0835 19.8957 3.021 20.8332 4.16683 20.8332H12.5002" stroke="black" stroke-width="2" stroke-linecap="round" stroke-linejoin="round"/>
<path d="M22.9168 7.2915L13.5731 13.229C13.2515 13.4305 12.8797 13.5373 12.5002 13.5373C12.1207 13.5373 11.7488 13.4305 11.4272 13.229L2.0835 7.2915" stroke="black" stroke-width="2" stroke-linecap="round" stroke-linejoin="round"/>
<path d="M19.7915 16.6665V22.9165" stroke="black" stroke-width="2" stroke-linecap="round" stroke-linejoin="round"/>
<path d="M16.6665 19.7915H22.9165" stroke="black" stroke-width="2" stroke-linecap="round" stroke-linejoin="round"/>
</svg>
