<svg width="1440" height="90" viewBox="0 0 1440 90" fill="none" xmlns="http://www.w3.org/2000/svg">
<rect width="1440" height="90" fill="url(#paint0_linear_520_2)"/>
<path d="M76.5849 54.7042L77.7111 50.939L68.5913 42.7881L76.5849 54.7042Z" fill="#8B0E0E"/>
<mask id="mask0_520_2" style="mask-type:luminance" maskUnits="userSpaceOnUse" x="68" y="42" width="26" height="9">
<path d="M68.4883 42.6709H94V50.9481H68.4883V42.6709Z" fill="white"/>
</mask>
<g mask="url(#mask0_520_2)">
<path d="M68.5913 42.7881L77.7111 50.939L94.06 46.9749L68.5913 42.7881Z" fill="#EFBF04"/>
</g>
<path d="M52.3461 34.1666L56.1951 34.9694C57.7834 32.7525 59.8837 30.8571 62.3457 29.4143L61.4058 25.9821C60.5021 26.4513 59.6352 26.971 58.8093 27.5372L42.1123 16.7173L54.2177 31.6398C53.5317 32.4401 52.9058 33.2851 52.3461 34.1666Z" fill="#EFBF04"/>
<mask id="mask1_520_2" style="mask-type:luminance" maskUnits="userSpaceOnUse" x="67" y="5" width="14" height="22">
<path d="M67.0908 5H80.1961V26.8972H67.0908V5Z" fill="white"/>
</mask>
<g mask="url(#mask1_520_2)">
<path d="M73.7682 26.3715C75.2282 26.3715 76.6547 26.5063 78.0308 26.7613L80.0806 23.7416C79.0826 23.5055 78.0581 23.3225 77.0138 23.2005L73.7682 4.99774L70.5212 23.2005C69.3874 23.3334 68.2776 23.5366 67.1978 23.8032L69.2844 26.8046C70.7294 26.521 72.2283 26.3715 73.7682 26.3715Z" fill="#8B0E0E"/>
</g>
<path d="M50.0402 50.8804L53.3984 49.0149C53.0817 47.7246 52.9138 46.3837 52.9138 45.0087H29L49.3651 47.9101C49.5146 48.924 49.7419 49.9153 50.0402 50.8804Z" fill="#8B0E0E"/>
<path d="M53.3506 41.1987L49.9712 39.3661C49.7071 40.2592 49.503 41.1737 49.3651 42.1077L29 45.0091H52.9138C52.9138 43.7029 53.0646 42.4285 53.3506 41.1987Z" fill="#EFBF04"/>
<mask id="mask2_520_2" style="mask-type:luminance" maskUnits="userSpaceOnUse" x="67" y="63" width="14" height="23">
<path d="M67.4399 63.1299H80.3705V85.0002H67.4399V63.1299Z" fill="white"/>
</mask>
<g mask="url(#mask2_520_2)">
<path d="M73.7664 63.647C72.305 63.647 70.8791 63.5122 69.5031 63.2566L67.4526 66.2769C68.4519 66.513 69.4751 66.6948 70.5194 66.8181L73.7664 85.0202L77.012 66.8181C78.1464 66.6851 79.2563 66.4813 80.3354 66.2147L78.2488 63.2139C76.8038 63.4975 75.3049 63.647 73.7664 63.647Z" fill="#8B0E0E"/>
</g>
<path d="M56.3186 55.2168L52.4785 56.0568C53.004 56.8645 53.5849 57.6393 54.2177 58.3781L42.1123 73.3006L58.8093 62.4807C59.7048 63.095 60.6495 63.6538 61.6365 64.1547L62.5341 60.714C60.0543 59.2938 57.9336 57.4173 56.3186 55.2168Z" fill="#8B0E0E"/>
<path d="M54.0278 45.0087H60.416C60.8016 41.8706 62.2432 39.0156 64.4152 36.7346L62.6651 30.481C57.4536 33.6313 54.0278 38.9619 54.0278 45.0087Z" fill="#EFBF04"/>
<path d="M73.6385 27.4829C72.3826 27.4829 71.1533 27.5891 69.9629 27.791L72.8126 31.8991C74.3149 31.5166 75.9012 31.311 77.5408 31.311C83.2102 31.311 88.24 33.7585 91.3798 37.5347C88.2407 31.5934 81.4771 27.4829 73.6385 27.4829Z" fill="#8B0E0E"/>
<path d="M77.5405 62.1099C70.9284 62.1099 65.1874 58.7808 62.2987 53.8955L57.4907 54.9539C61.0278 59.5336 66.9402 62.5351 73.6382 62.5351C75.1276 62.5351 76.5774 62.3862 77.9719 62.105C77.8292 62.108 77.6852 62.1099 77.5405 62.1099Z" fill="#8B0E0E"/>
<path d="M60.416 45.0088H54.0278C54.0278 46.1959 54.1609 47.355 54.4128 48.4757L60.3969 45.1851C60.403 45.1265 60.4085 45.0674 60.416 45.0088Z" fill="#8B0E0E"/>
<path d="M105.7 38L105.475 33.325L113.85 24.5H118.35L110.8 32.625L108.55 35.025L105.7 38ZM102.075 42V24.5H106.1V42H102.075ZM114.05 42L107.825 34.375L110.475 31.5L118.775 42H114.05ZM117.475 42L125.275 24.5H129.275L137.1 42H132.85L126.45 26.55H128.05L121.625 42H117.475ZM121.375 38.25L122.45 35.175H131.45L132.55 38.25H121.375ZM141.662 42V27.8H136.062V24.5H151.312V27.8H145.712V42H141.662ZM153.491 42V24.5H157.541V42H153.491ZM161.694 42V24.5H169.269C170.836 24.5 172.186 24.7583 173.319 25.275C174.452 25.775 175.327 26.5 175.944 27.45C176.561 28.4 176.869 29.5333 176.869 30.85C176.869 32.15 176.561 33.275 175.944 34.225C175.327 35.175 174.452 35.9083 173.319 36.425C172.186 36.925 170.836 37.175 169.269 37.175H163.944L165.744 35.35V42H161.694ZM165.744 35.8L163.944 33.875H169.044C170.294 33.875 171.227 33.6083 171.844 33.075C172.461 32.5417 172.769 31.8 172.769 30.85C172.769 29.8833 172.461 29.1333 171.844 28.6C171.227 28.0667 170.294 27.8 169.044 27.8H163.944L165.744 25.875V35.8ZM187.438 42.3C184.955 42.3 183.013 41.6083 181.613 40.225C180.213 38.8417 179.513 36.8667 179.513 34.3V24.5H183.563V34.15C183.563 35.8167 183.905 37.0167 184.588 37.75C185.271 38.4833 186.23 38.85 187.463 38.85C188.696 38.85 189.655 38.4833 190.338 37.75C191.021 37.0167 191.363 35.8167 191.363 34.15V24.5H195.363V34.3C195.363 36.8667 194.663 38.8417 193.263 40.225C191.863 41.6083 189.921 42.3 187.438 42.3ZM199.365 42V24.5H202.715L213.04 37.1H211.415V24.5H215.415V42H212.09L201.74 29.4H203.365V42H199.365ZM217.255 42L225.055 24.5H229.055L236.88 42H232.63L226.23 26.55H227.83L221.405 42H217.255ZM221.155 38.25L222.23 35.175H231.23L232.33 38.25H221.155ZM238.696 42V24.5H242.046L252.371 37.1H250.746V24.5H254.746V42H251.421L241.071 29.4H242.696V42H238.696Z" fill="#8B0E0E"/>
<mask id="path-17-outside-1_520_2" maskUnits="userSpaceOnUse" x="102" y="51" width="66" height="23" fill="black">
<rect fill="white" x="102" y="51" width="66" height="23"/>
<path d="M116.075 53.5H120.125V71H116.075V53.5ZM108.125 71H104.075V53.5H108.125V71ZM116.375 63.825H107.825V60.4H116.375V63.825ZM134.54 71.3C132.057 71.3 130.115 70.6083 128.715 69.225C127.315 67.8417 126.615 65.8667 126.615 63.3V53.5H130.665V63.15C130.665 64.8167 131.007 66.0167 131.69 66.75C132.374 67.4833 133.332 67.85 134.565 67.85C135.799 67.85 136.757 67.4833 137.44 66.75C138.124 66.0167 138.465 64.8167 138.465 63.15V53.5H142.465V63.3C142.465 65.8667 141.765 67.8417 140.365 69.225C138.965 70.6083 137.024 71.3 134.54 71.3ZM148.968 71V53.5H157.518C159.718 53.5 161.368 53.9167 162.468 54.75C163.584 55.5833 164.143 56.6833 164.143 58.05C164.143 58.9667 163.918 59.7667 163.468 60.45C163.018 61.1167 162.401 61.6333 161.618 62C160.834 62.3667 159.934 62.55 158.918 62.55L159.393 61.525C160.493 61.525 161.468 61.7083 162.318 62.075C163.168 62.425 163.826 62.95 164.293 63.65C164.776 64.35 165.018 65.2083 165.018 66.225C165.018 67.725 164.426 68.9 163.243 69.75C162.059 70.5833 160.318 71 158.018 71H148.968ZM152.993 67.95H157.718C158.768 67.95 159.559 67.7833 160.093 67.45C160.643 67.1 160.918 66.55 160.918 65.8C160.918 65.0667 160.643 64.525 160.093 64.175C159.559 63.8083 158.768 63.625 157.718 63.625H152.693V60.675H157.018C158.001 60.675 158.751 60.5083 159.268 60.175C159.801 59.825 160.068 59.3 160.068 58.6C160.068 57.9167 159.801 57.4083 159.268 57.075C158.751 56.725 158.001 56.55 157.018 56.55H152.993V67.95Z"/>
</mask>
<path d="M116.075 53.5V51.5H114.075V53.5H116.075ZM120.125 53.5H122.125V51.5H120.125V53.5ZM120.125 71V73H122.125V71H120.125ZM116.075 71H114.075V73H116.075V71ZM108.125 71V73H110.125V71H108.125ZM104.075 71H102.075V73H104.075V71ZM104.075 53.5V51.5H102.075V53.5H104.075ZM108.125 53.5H110.125V51.5H108.125V53.5ZM116.375 63.825V65.825H118.375V63.825H116.375ZM107.825 63.825H105.825V65.825H107.825V63.825ZM107.825 60.4V58.4H105.825V60.4H107.825ZM116.375 60.4H118.375V58.4H116.375V60.4ZM116.075 53.5V55.5H120.125V53.5V51.5H116.075V53.5ZM120.125 53.5H118.125V71H120.125H122.125V53.5H120.125ZM120.125 71V69H116.075V71V73H120.125V71ZM116.075 71H118.075V53.5H116.075H114.075V71H116.075ZM108.125 71V69H104.075V71V73H108.125V71ZM104.075 71H106.075V53.5H104.075H102.075V71H104.075ZM104.075 53.5V55.5H108.125V53.5V51.5H104.075V53.5ZM108.125 53.5H106.125V71H108.125H110.125V53.5H108.125ZM116.375 63.825V61.825H107.825V63.825V65.825H116.375V63.825ZM107.825 63.825H109.825V60.4H107.825H105.825V63.825H107.825ZM107.825 60.4V62.4H116.375V60.4V58.4H107.825V60.4ZM116.375 60.4H114.375V63.825H116.375H118.375V60.4H116.375ZM128.715 69.225L130.121 67.8023L130.121 67.8023L128.715 69.225ZM126.615 53.5V51.5H124.615V53.5H126.615ZM130.665 53.5H132.665V51.5H130.665V53.5ZM131.69 66.75L130.227 68.1135L130.227 68.1135L131.69 66.75ZM137.44 66.75L138.904 68.1135L138.904 68.1135L137.44 66.75ZM138.465 53.5V51.5H136.465V53.5H138.465ZM142.465 53.5H144.465V51.5H142.465V53.5ZM140.365 69.225L141.771 70.6477L141.771 70.6477L140.365 69.225ZM134.54 71.3V69.3C132.439 69.3 131.055 68.7251 130.121 67.8023L128.715 69.225L127.31 70.6477C129.176 72.4915 131.676 73.3 134.54 73.3V71.3ZM128.715 69.225L130.121 67.8023C129.207 66.8992 128.615 65.5017 128.615 63.3H126.615H124.615C124.615 66.2317 125.424 68.7841 127.31 70.6477L128.715 69.225ZM126.615 63.3H128.615V53.5H126.615H124.615V63.3H126.615ZM126.615 53.5V55.5H130.665V53.5V51.5H126.615V53.5ZM130.665 53.5H128.665V63.15H130.665H132.665V53.5H130.665ZM130.665 63.15H128.665C128.665 65.0085 129.032 66.8308 130.227 68.1135L131.69 66.75L133.154 65.3865C132.982 65.2025 132.665 64.6248 132.665 63.15H130.665ZM131.69 66.75L130.227 68.1135C131.373 69.3434 132.914 69.85 134.565 69.85V67.85V65.85C133.75 65.85 133.374 65.6233 133.154 65.3865L131.69 66.75ZM134.565 67.85V69.85C136.216 69.85 137.758 69.3434 138.904 68.1135L137.44 66.75L135.977 65.3865C135.757 65.6233 135.381 65.85 134.565 65.85V67.85ZM137.44 66.75L138.904 68.1135C140.099 66.8308 140.465 65.0085 140.465 63.15H138.465H136.465C136.465 64.6248 136.149 65.2025 135.977 65.3865L137.44 66.75ZM138.465 63.15H140.465V53.5H138.465H136.465V63.15H138.465ZM138.465 53.5V55.5H142.465V53.5V51.5H138.465V53.5ZM142.465 53.5H140.465V63.3H142.465H144.465V53.5H142.465ZM142.465 63.3H140.465C140.465 65.5017 139.874 66.8992 138.96 67.8023L140.365 69.225L141.771 70.6477C143.657 68.7841 144.465 66.2317 144.465 63.3H142.465ZM140.365 69.225L138.96 67.8023C138.026 68.7251 136.642 69.3 134.54 69.3V71.3V73.3C137.405 73.3 139.905 72.4915 141.771 70.6477L140.365 69.225ZM148.968 71H146.968V73H148.968V71ZM148.968 53.5V51.5H146.968V53.5H148.968ZM162.468 54.75L161.26 56.3442L161.266 56.3485L161.271 56.3529L162.468 54.75ZM163.468 60.45L165.125 61.5689L165.132 61.5595L165.138 61.55L163.468 60.45ZM161.618 62L162.465 63.8114L162.465 63.8114L161.618 62ZM158.918 62.55L157.103 61.7091L155.786 64.55H158.918V62.55ZM159.393 61.525V59.525H158.115L157.578 60.6841L159.393 61.525ZM162.318 62.075L161.525 63.9114L161.541 63.918L161.556 63.9244L162.318 62.075ZM164.293 63.65L162.628 64.7594L162.638 64.773L162.647 64.7864L164.293 63.65ZM163.243 69.75L164.394 71.3852L164.402 71.3798L164.409 71.3744L163.243 69.75ZM152.993 67.95H150.993V69.95H152.993V67.95ZM160.093 67.45L161.153 69.146L161.159 69.1417L161.166 69.1373L160.093 67.45ZM160.093 64.175L158.96 65.8231L158.989 65.8432L159.019 65.8623L160.093 64.175ZM152.693 63.625H150.693V65.625H152.693V63.625ZM152.693 60.675V58.675H150.693V60.675H152.693ZM159.268 60.175L160.352 61.8556L160.358 61.8514L160.365 61.8471L159.268 60.175ZM159.268 57.075L158.146 58.7308L158.176 58.7515L158.208 58.771L159.268 57.075ZM152.993 56.55V54.55H150.993V56.55H152.993ZM148.968 71H150.968V53.5H148.968H146.968V71H148.968ZM148.968 53.5V55.5H157.518V53.5V51.5H148.968V53.5ZM157.518 53.5V55.5C159.522 55.5 160.66 55.8896 161.26 56.3442L162.468 54.75L163.675 53.1558C162.075 51.9437 159.913 51.5 157.518 51.5V53.5ZM162.468 54.75L161.271 56.3529C161.894 56.8174 162.143 57.3289 162.143 58.05H164.143H166.143C166.143 56.0377 165.275 54.3493 163.664 53.1471L162.468 54.75ZM164.143 58.05H162.143C162.143 58.6244 162.007 59.0317 161.797 59.35L163.468 60.45L165.138 61.55C165.828 60.5017 166.143 59.309 166.143 58.05H164.143ZM163.468 60.45L161.81 59.3311C161.577 59.6753 161.251 59.9633 160.77 60.1886L161.618 62L162.465 63.8114C163.551 63.3033 164.458 62.558 165.125 61.5689L163.468 60.45ZM161.618 62L160.77 60.1886C160.294 60.4111 159.692 60.55 158.918 60.55V62.55V64.55C160.176 64.55 161.374 64.3222 162.465 63.8114L161.618 62ZM158.918 62.55L160.732 63.3909L161.207 62.3659L159.393 61.525L157.578 60.6841L157.103 61.7091L158.918 62.55ZM159.393 61.525V63.525C160.271 63.525 160.968 63.671 161.525 63.9114L162.318 62.075L163.11 60.2386C161.967 59.7457 160.715 59.525 159.393 59.525V61.525ZM162.318 62.075L161.556 63.9244C162.074 64.1376 162.403 64.4209 162.628 64.7594L164.293 63.65L165.957 62.5406C165.249 61.4791 164.261 60.7124 163.079 60.2256L162.318 62.075ZM164.293 63.65L162.647 64.7864C162.857 65.0915 163.018 65.5335 163.018 66.225H165.018H167.018C167.018 64.8832 166.694 63.6085 165.938 62.5136L164.293 63.65ZM165.018 66.225H163.018C163.018 67.1035 162.718 67.6643 162.076 68.1256L163.243 69.75L164.409 71.3744C166.134 70.1357 167.018 68.3465 167.018 66.225H165.018ZM163.243 69.75L162.091 68.1148C161.391 68.6081 160.129 69 158.018 69V71V73C160.506 73 162.728 72.5586 164.394 71.3852L163.243 69.75ZM158.018 71V69H148.968V71V73H158.018V71ZM152.993 67.95V69.95H157.718V67.95V65.95H152.993V67.95ZM157.718 67.95V69.95C158.918 69.95 160.154 69.7703 161.153 69.146L160.093 67.45L159.033 65.754C158.965 65.7964 158.617 65.95 157.718 65.95V67.95ZM160.093 67.45L161.166 69.1373C162.388 68.3597 162.918 67.113 162.918 65.8H160.918H158.918C158.918 65.9317 158.894 65.9377 158.922 65.8806C158.936 65.8531 158.956 65.824 158.979 65.7985C158.99 65.7866 159 65.7776 159.008 65.7713C159.015 65.7651 159.019 65.7624 159.019 65.7627L160.093 67.45ZM160.918 65.8H162.918C162.918 64.4838 162.374 63.2559 161.166 62.4877L160.093 64.175L159.019 65.8623C159.022 65.8643 159.007 65.8553 158.985 65.8317C158.963 65.8075 158.943 65.7785 158.928 65.7491C158.913 65.7206 158.91 65.7039 158.911 65.7076C158.912 65.7125 158.918 65.7412 158.918 65.8H160.918ZM160.093 64.175L161.226 62.5269C160.21 61.8285 158.943 61.625 157.718 61.625V63.625V65.625C158.593 65.625 158.909 65.7881 158.96 65.8231L160.093 64.175ZM157.718 63.625V61.625H152.693V63.625V65.625H157.718V63.625ZM152.693 63.625H154.693V60.675H152.693H150.693V63.625H152.693ZM152.693 60.675V62.675H157.018V60.675V58.675H152.693V60.675ZM157.018 60.675V62.675C158.175 62.675 159.372 62.4878 160.352 61.8556L159.268 60.175L158.183 58.4944C158.13 58.5289 157.826 58.675 157.018 58.675V60.675ZM159.268 60.175L160.365 61.8471C161.524 61.0867 162.068 59.8962 162.068 58.6H160.068H158.068C158.068 58.6483 158.063 58.6685 158.063 58.6668C158.064 58.6639 158.069 58.6434 158.084 58.613C158.1 58.582 158.12 58.5532 158.142 58.5301C158.162 58.5077 158.175 58.4998 158.17 58.5029L159.268 60.175ZM160.068 58.6H162.068C162.068 57.2986 161.504 56.1142 160.328 55.379L159.268 57.075L158.208 58.771C158.21 58.7725 158.193 58.7622 158.168 58.7357C158.142 58.7084 158.117 58.6739 158.096 58.6353C158.053 58.5531 158.068 58.5206 158.068 58.6H160.068ZM159.268 57.075L160.389 55.4192C159.401 54.7498 158.189 54.55 157.018 54.55V56.55V58.55C157.813 58.55 158.101 58.7002 158.146 58.7308L159.268 57.075ZM157.018 56.55V54.55H152.993V56.55V58.55H157.018V56.55ZM152.993 56.55H150.993V67.95H152.993H154.993V56.55H152.993Z" fill="#8B0E0E" mask="url(#path-17-outside-1_520_2)"/>
<defs>
<linearGradient id="paint0_linear_520_2" x1="0" y1="45" x2="1440" y2="45" gradientUnits="userSpaceOnUse">
<stop stop-color="#EFBF04"/>
<stop offset="0.384615" stop-color="#8B0E0E"/>
<stop offset="1" stop-color="#4E0505"/>
</linearGradient>
</defs>
</svg>
