<svg width="51" height="50" viewBox="0 0 51 50" fill="none" xmlns="http://www.w3.org/2000/svg">
<path d="M22.0586 43.75C22.4243 44.3834 22.9503 44.9093 23.5837 45.275C24.2171 45.6406 24.9356 45.8332 25.6669 45.8332C26.3983 45.8332 27.1168 45.6406 27.7502 45.275C28.3836 44.9093 28.9095 44.3834 29.2753 43.75" stroke="#9E9494" stroke-width="2" stroke-linecap="round" stroke-linejoin="round"/>
<path d="M7.46277 31.9292C7.19061 32.2275 7.01101 32.5984 6.9458 32.9969C6.8806 33.3954 6.9326 33.8043 7.09549 34.1738C7.25838 34.5432 7.52513 34.8574 7.8633 35.0781C8.20147 35.2988 8.59647 35.4164 9.00027 35.4167H42.3336C42.7373 35.4168 43.1324 35.2997 43.4708 35.0794C43.8092 34.8592 44.0763 34.5453 44.2396 34.1761C44.4029 33.8069 44.4555 33.3981 44.3908 32.9996C44.3261 32.601 44.147 32.2299 43.8753 31.9313C41.1044 29.075 38.1669 26.0396 38.1669 16.6667C38.1669 13.3515 36.85 10.1721 34.5058 7.82785C32.1616 5.48365 28.9821 4.16669 25.6669 4.16669C22.3517 4.16669 19.1723 5.48365 16.8281 7.82785C14.4839 10.1721 13.1669 13.3515 13.1669 16.6667C13.1669 26.0396 10.2274 29.075 7.46277 31.9292Z" stroke="#9E9494" stroke-width="2" stroke-linecap="round" stroke-linejoin="round"/>
</svg>
