<svg width="51" height="50" viewBox="0 0 51 50" fill="none" xmlns="http://www.w3.org/2000/svg">
<path d="M44.167 33.1624V16.4957C44.1662 15.765 43.9734 15.0474 43.6077 14.4148C43.242 13.7822 42.7164 13.2569 42.0837 12.8916L27.5003 4.55823C26.8669 4.19253 26.1484 4 25.417 4C24.6856 4 23.9671 4.19253 23.3337 4.55823L8.75033 12.8916C8.11754 13.2569 7.59195 13.7822 7.22629 14.4148C6.86062 15.0474 6.66774 15.765 6.66699 16.4957V33.1624C6.66774 33.8931 6.86062 34.6107 7.22629 35.2433C7.59195 35.8759 8.11754 36.4012 8.75033 36.7666L23.3337 45.0999C23.9671 45.4656 24.6856 45.6581 25.417 45.6581C26.1484 45.6581 26.8669 45.4656 27.5003 45.0999L42.0837 36.7666C42.7164 36.4012 43.242 35.8759 43.6077 35.2433C43.9734 34.6107 44.1662 33.8931 44.167 33.1624Z" stroke="#9E9494" stroke-width="2" stroke-linecap="round" stroke-linejoin="round"/>
<path d="M25.6668 33.3334C30.2692 33.3334 34.0002 29.6024 34.0002 25C34.0002 20.3976 30.2692 16.6667 25.6668 16.6667C21.0645 16.6667 17.3335 20.3976 17.3335 25C17.3335 29.6024 21.0645 33.3334 25.6668 33.3334Z" stroke="#9E9494" stroke-width="2" stroke-linecap="round" stroke-linejoin="round"/>
</svg>
