<?xml version="1.0" encoding="UTF-8"?>
<svg id="file_1" data-name="file 1" xmlns="http://www.w3.org/2000/svg" viewBox="0 0 400 400">
  <path d="M259.347,351.742H56c-3.314,0-6-2.686-6-6V74.002c0-3.314,2.686-6,6-6h21.154" fill="none" stroke="#4f46e5" stroke-linecap="round" stroke-linejoin="round" stroke-width="12"/>
  <path d="M295.42,103.48v133.27c-2.24-.25-4.51-.38-6.81-.38-33.91,0-61.39,27.49-61.39,61.39,0,9.62,2.21,18.73,6.16,26.83H77.15V46.85c0-3.32,2.69-6,6-6h149.63l62.64,62.63Z" fill="none" stroke="#191919" stroke-linecap="round" stroke-linejoin="round" stroke-width="12"/>
  <g>
    <path d="M295.42,103.48v133.27c-2.24-.25-4.51-.38-6.81-.38-33.91,0-61.39,27.49-61.39,61.39,0,9.62,2.21,18.73,6.16,26.83H83.15c-3.31,0-6-2.69-6-6V46.85c0-3.32,2.69-6,6-6h149.63l62.64,62.63Z" fill="none" stroke="#191919" stroke-linecap="round" stroke-linejoin="round" stroke-width="12"/>
    <path d="M295.415,103.48h-56.632c-3.314,0-6-2.686-6-6v-56.632" fill="none" stroke="#191919" stroke-linecap="round" stroke-linejoin="round" stroke-width="12"/>
  </g>
  <line x1="112.719" y1="140.348" x2="259.85" y2="140.348" fill="none" stroke="#4f46e5" stroke-linecap="round" stroke-linejoin="round" stroke-width="12"/>
  <line x1="112.719" y1="170.348" x2="259.85" y2="170.348" fill="none" stroke="#4f46e5" stroke-linecap="round" stroke-linejoin="round" stroke-width="12"/>
  <line x1="112.719" y1="200.348" x2="259.85" y2="200.348" fill="none" stroke="#4f46e5" stroke-linecap="round" stroke-linejoin="round" stroke-width="12"/>
  <line x1="112.719" y1="230.348" x2="259.85" y2="230.348" fill="none" stroke="#4f46e5" stroke-linecap="round" stroke-linejoin="round" stroke-width="12"/>
  <line x1="112.719" y1="260.348" x2="190.565" y2="260.348" fill="none" stroke="#4f46e5" stroke-linecap="round" stroke-linejoin="round" stroke-width="12"/>
  <line x1="112.719" y1="110.348" x2="140.565" y2="110.348" fill="none" stroke="#4f46e5" stroke-linecap="round" stroke-linejoin="round" stroke-width="12"/>
  <circle cx="288.609" cy="297.761" r="61.391" fill="none" stroke="#191919" stroke-linecap="round" stroke-linejoin="round" stroke-width="12"/>
  <polyline points="318.639 276.576 271.015 324.2 252.58 305.765" fill="none" stroke="#4f46e5" stroke-linecap="round" stroke-linejoin="round" stroke-width="12"/>
</svg>