<svg width="50" height="50" viewBox="0 0 50 50" fill="none" xmlns="http://www.w3.org/2000/svg">
<path d="M24.9998 27.0832C26.1504 27.0832 27.0832 26.1504 27.0832 24.9998C27.0832 23.8492 26.1504 22.9165 24.9998 22.9165C23.8492 22.9165 22.9165 23.8492 22.9165 24.9998C22.9165 26.1504 23.8492 27.0832 24.9998 27.0832Z" stroke="white" stroke-width="2" stroke-linecap="round" stroke-linejoin="round"/>
<path d="M39.5833 27.0832C40.7339 27.0832 41.6667 26.1504 41.6667 24.9998C41.6667 23.8492 40.7339 22.9165 39.5833 22.9165C38.4327 22.9165 37.5 23.8492 37.5 24.9998C37.5 26.1504 38.4327 27.0832 39.5833 27.0832Z" stroke="white" stroke-width="2" stroke-linecap="round" stroke-linejoin="round"/>
<path d="M10.4168 27.0832C11.5674 27.0832 12.5002 26.1504 12.5002 24.9998C12.5002 23.8492 11.5674 22.9165 10.4168 22.9165C9.26624 22.9165 8.3335 23.8492 8.3335 24.9998C8.3335 26.1504 9.26624 27.0832 10.4168 27.0832Z" stroke="white" stroke-width="2" stroke-linecap="round" stroke-linejoin="round"/>
</svg>
